<svg width="14" height="14" viewBox="0 0 14 14" fill="none" xmlns="http://www.w3.org/2000/svg">
<g clip-path="url(#clip0_1033_1897)">
<path d="M6.99998 0.0249023C5.45645 0.0266005 3.97661 0.64048 2.88511 1.73187C1.79361 2.82326 1.17959 4.30304 1.17773 5.84657C1.17773 7.34574 2.33857 9.6919 4.62815 12.8197C4.90072 13.1931 5.2576 13.4969 5.66975 13.7063C6.0819 13.9158 6.53768 14.0249 6.99998 14.0249C7.46229 14.0249 7.91807 13.9158 8.33022 13.7063C8.74237 13.4969 9.09925 13.1931 9.37182 12.8197C11.6614 9.6919 12.8222 7.34574 12.8222 5.84657C12.8204 4.30304 12.2064 2.82326 11.1149 1.73187C10.0234 0.64048 8.54352 0.0266005 6.99998 0.0249023ZM6.99998 8.16707C6.5385 8.16707 6.08737 8.03022 5.70365 7.77383C5.31994 7.51744 5.02087 7.15303 4.84427 6.72667C4.66766 6.3003 4.62145 5.83115 4.71149 5.37853C4.80152 4.9259 5.02375 4.51014 5.35007 4.18382C5.67639 3.8575 6.09215 3.63527 6.54477 3.54524C6.9974 3.45521 7.46655 3.50141 7.89291 3.67802C8.31927 3.85462 8.68369 4.15369 8.94008 4.53741C9.19647 4.92112 9.33332 5.37225 9.33332 5.83374C9.33332 6.45258 9.08749 7.04607 8.6499 7.48365C8.21232 7.92124 7.61882 8.16707 6.99998 8.16707Z" fill="#3196F8"/>
</g>
<defs>
<clipPath id="clip0_1033_1897">
<rect width="14" height="14" fill="white"/>
</clipPath>
</defs>
</svg>
