<svg width="18" height="18" viewBox="0 0 18 18" fill="none" xmlns="http://www.w3.org/2000/svg">
<g clip-path="url(#clip0_1017_1758)">
<path d="M11.0715 8.69017C10.6615 8.92356 10.2145 9.0849 9.75 9.16717V17.9054C10.1453 17.8285 10.5253 17.6873 10.875 17.4877L15.3952 14.8784C15.9646 14.5483 16.4374 14.0746 16.7664 13.5046C17.0954 12.9346 17.2691 12.2883 17.2702 11.6302V6.41017C17.2678 6.00952 17.2007 5.6119 17.0715 5.23267L11.0715 8.69017Z" fill="#3196F8"/>
<path d="M7.68085 7.39267C8.08254 7.62372 8.53783 7.74531 9.00123 7.74531C9.46462 7.74531 9.91991 7.62372 10.3216 7.39267L16.3216 3.93517C16.0559 3.62983 15.7423 3.36969 15.3931 3.16492L10.8744 0.552673C10.3039 0.224639 9.65739 0.052002 8.99935 0.052002C8.34132 0.052002 7.6948 0.224639 7.12435 0.552673L2.6041 3.16267C2.26739 3.35984 1.9637 3.60862 1.7041 3.89992L7.68085 7.39267Z" fill="#3196F8"/>
<path d="M8.24974 9.16738C7.78492 9.0853 7.33766 8.92396 6.92749 8.69038L0.942492 5.19238C0.803987 5.58364 0.731991 5.99534 0.729492 6.41038V11.6304C0.730589 12.2885 0.904319 12.9348 1.23334 13.5048C1.56235 14.0748 2.03514 14.5485 2.60449 14.8786L7.12474 17.4879C7.47445 17.6876 7.85447 17.8287 8.24974 17.9056V9.16738Z" fill="#3196F8"/>
</g>
<defs>
<clipPath id="clip0_1017_1758">
<rect width="18" height="18" fill="white"/>
</clipPath>
</defs>
</svg>
