<svg width="155" height="119" viewBox="0 0 155 119" fill="none" xmlns="http://www.w3.org/2000/svg">
<path fill-rule="evenodd" clip-rule="evenodd" d="M27.7559 62.2216L24.0933 62.3711C22.6482 62.5704 19.8028 62.8495 19.9822 62.9691C20.1616 63.0887 25.9371 63.1186 28.8024 63.1186H101.456C112.12 63.0687 133.822 62.5206 134.345 61.9974C131.804 61.9974 130.159 61.7731 128.739 61.6236C129.462 59.8795 130.518 55.5392 128.963 52.1307L131.056 52.355L130.458 31.1268L87.9273 5.7876C85.0121 6.18625 78.9875 6.89386 78.2101 6.53507V8.25425C80.5024 8.17951 85.2513 8.2991 85.9091 9.37546C86.5669 10.4518 86.7313 12.3653 86.7313 13.1876V16.4764L86.5818 19.5411C86.2081 16.7007 86.3277 10.9003 85.3111 10.1229C84.2945 9.34556 80.5522 9.5997 78.8081 9.82394C78.559 9.99835 78.0905 10.5565 78.2101 11.3936C78.3297 12.2308 78.26 15.9781 78.2101 17.7471H77.5374L77.6122 4.89064C78.5091 3.54519 80.8711 2.16985 79.2566 0.555311C77.6421 -1.05922 75.3448 1.22803 74.398 2.57348C74.0741 3.12162 73.4263 4.75609 73.4263 6.90881L56.683 8.92698C54.7645 9.22596 50.3893 11.0797 48.2366 16.1027L44.0508 16.9249C43.5026 17.0993 42.3166 18.0461 41.9578 20.438L39.3417 20.737C38.5942 21.036 38.5195 21.5742 38.5195 22.2319V27.0158C35.6791 27.2898 29.8189 28.3313 29.1014 30.3046C28.2044 32.7713 28.3539 33.8177 28.3539 34.2662L27.8307 39.4985C26.2111 39.8972 22.8824 41.3074 22.5236 43.7591V46.9732C22.0751 47.1476 21.1782 47.8253 21.1782 49.1409V53.7004C21.1782 54.9961 22.0751 57.8115 24.766 56.8398C25.0401 58.26 26.4105 61.0256 27.7559 62.2216ZM57.281 61.7731L38.071 61.9974C39.3865 61.1004 39.8649 59.431 39.9397 58.7085H55.786C55.5468 60.2034 56.683 61.3745 57.281 61.7731ZM63.784 61.7731C63.0116 61.1502 61.6163 59.3812 60.9436 57.363C61.1927 58.7334 62.1096 61.5339 63.784 61.7731ZM24.766 46.749C25.2643 46.4998 26.4404 46.0762 27.1579 46.3752C27.8755 46.6742 25.8623 46.749 24.766 46.749ZM27.3074 45.7025L23.7196 45.852H23.5701C23.5701 45.553 23.6 44.8055 23.7196 44.2076C23.8392 43.6096 26.261 43.4601 27.4569 43.4601L27.3074 45.7025ZM27.4569 42.2641C27.1579 42.1445 25.2893 42.4136 24.3923 42.5631C24.7511 41.9652 26.6347 40.6945 27.8307 40.4702L27.4569 42.2641ZM28.7276 45.1793L29.9236 32.0238C30.2443 28.4957 39.3417 28.4466 44.9477 28.2864C51.0521 28.112 63.6943 27.7483 65.4284 27.6885C67.1625 27.6287 67.8452 21.8831 67.9698 19.0178C67.9698 18.8683 68.4781 18.5992 70.5112 18.7188C72.5443 18.8384 72.3051 19.3168 71.9314 19.5411H69.3152C68.9166 21.1855 68.0894 24.9228 67.9698 26.7168C67.8502 28.5107 66.5745 28.9592 65.9516 28.9592L47.4144 29.9309C47.8928 29.9907 48.0124 30.5538 48.0124 30.8278C47.8629 34.7147 47.5788 42.8472 47.6386 44.2823C47.6984 45.7175 46.1686 46.4251 45.3962 46.5995C41.2851 46.724 32.6145 47.0181 30.8205 47.1974C29.0266 47.3768 28.6778 45.9267 28.7276 45.1793ZM42.2568 27.0158H41.2104L40.8366 21.5592L44.3497 21.2602V22.0077C44.1106 21.9479 42.8548 25.3215 42.2568 27.0158ZM46.8911 26.8663H46.3679L47.4144 21.5592H48.0124L46.8911 26.8663ZM63.9335 26.4178C61.0931 26.5174 55.3525 26.7168 55.1133 26.7168C56.0103 26.4776 58.9254 23.8265 60.2709 22.5309L55.1133 22.1572C56.6083 22.1572 62.5133 21.1107 65.4284 20.8118L63.9335 26.4178ZM65.4284 31.1268C63.3953 30.4093 53.6184 31.4258 48.9841 32.0238C48.6352 31.5753 49.9408 30.6036 57.9537 30.3046C60.3456 30.205 65.1892 30.2299 65.4284 31.1268ZM58.4022 45.852H49.5073V45.4035C51.1766 45.3786 54.8592 45.3288 56.2345 45.3288C57.6099 45.3288 58.0534 44.9301 58.1032 44.7308C58.2029 44.4816 58.5068 43.6694 58.9254 42.4136C59.344 41.1579 58.751 40.9436 58.4022 40.9934H50.8527C53.424 38.3623 61.1429 37.4554 64.6809 37.3308C57.0268 36.1947 51.8743 38.5517 50.2548 39.8722C53.723 35.9854 59.5732 35.5618 62.0648 35.8359C63.5348 36.0601 67.1326 37.1813 69.7637 39.8722C72.3948 42.5631 72.7038 51.6574 72.5294 55.8681C72.1108 55.4495 71.8566 51.4082 71.7819 49.4399C71.3833 46.2506 69.8086 39.9619 66.6991 40.3207C63.5896 40.6795 61.6445 44.0581 61.6163 45.6278C61.1678 39.349 66.8486 39.1248 68.8668 40.3207C65.5031 37.7046 63.2607 38.6015 61.1678 39.8722C59.7476 41.1429 59.1497 43.485 58.4022 45.852ZM50.8527 41.6662H58.1032C58.1032 43.6993 57.1066 44.4069 56.6083 44.5066H49.5073C49.5073 42.4734 50.4043 41.7658 50.8527 41.6662ZM67.5961 18.3451C60.5399 17.8069 48.5107 19.5161 43.378 20.438C43.5275 19.3916 43.6319 18.1893 46.1437 17.5229C49.8063 16.5512 62.9238 15.704 70.5112 15.43L73.1273 16.9249C72.7287 16.8003 71.6025 16.5063 70.287 16.3269C68.9714 16.1475 67.9449 17.5976 67.5961 18.3451ZM67.9698 14.3088C66.5347 13.7706 56.1099 15.0313 51.077 15.729C51.6152 13.8752 55.8857 12.3653 57.9537 11.8421C55.6814 11.6627 52.8709 12.9633 51.7497 13.636C52.2879 12.4999 55.2628 10.9701 56.683 10.3472L73.5758 8.55324V9.67445C72.3799 9.73424 69.3402 12.7889 67.9698 14.3088ZM75.5192 17.7471H74.398V5.04013C74.398 2.46883 76.5657 0.779551 78.2101 0.779551C78.7334 0.779551 79.003 1.87568 77.8364 2.19974C76.491 2.57348 75.6687 4.06842 75.6687 4.89064L75.5192 17.7471ZM68.1193 35.4622L67.8203 30.3046C67.4466 31.6501 67.2971 34.4905 67.2971 35.4622C67.2971 36.2844 68.1193 35.9854 68.1193 35.4622ZM68.493 28.6602V27.9875C70.5261 27.9875 71.8816 27.5888 72.3051 27.3895C72.4247 28.5256 69.8136 28.71 68.493 28.6602ZM87.1798 20.8865L87.6283 42.1894L86.2081 21.2602L79.5556 18.4946C79.5556 18.4946 79.2566 18.4198 79.3313 18.1209C79.4061 17.8219 79.7051 17.9714 79.7051 17.9714L87.1798 20.8865ZM65.6526 45.4035C63.4999 45.4035 62.3139 48.0944 61.99 49.4399C61.9047 47.4466 62.5176 43.5797 65.6526 44.0581C68.7877 44.5365 69.6996 48.8917 69.7637 51.0095C69.2903 49.1409 67.8054 45.4035 65.6526 45.4035ZM75.5192 42.9369H74.697C74.697 44.372 73.8997 44.6311 73.5011 44.5813V45.4035C75.295 45.4633 75.594 43.784 75.5192 42.9369ZM89.6464 45.254V44.5813L129.337 50.4863V51.0843C127.782 51.2039 102.229 47.2473 89.6464 45.254ZM88.3757 8.329L89.3474 41.7409L129.711 48.9914L129.337 32.0238L88.3757 8.329ZM84.7879 61.4741H79.7051C80.6618 60.9957 81.3993 58.8331 81.6485 57.8115H83.3677C83.1883 59.0075 84.2397 60.7516 84.7879 61.4741ZM112.818 61.1751H105.119C105.657 61.1751 106.29 58.4842 106.539 57.1388H111.772C111.592 58.9925 112.394 60.6021 112.818 61.1751ZM92.7111 48.6176C95.4767 48.6176 95.9252 60.1287 93.01 60.1287C92.3373 60.1287 90.3939 58.4095 90.3939 54.6721C90.3939 49.5893 91.3656 48.6176 92.7111 48.6176ZM99.2888 48.9914C102.054 48.9914 102.503 60.5024 99.5878 60.5024C98.9151 60.5024 96.9716 58.7832 96.9716 55.0459C96.9716 49.9631 97.9434 48.9914 99.2888 48.9914ZM120.592 56.3913C120.711 58.9626 119.595 60.2533 119.022 60.5772C117.7 60.5772 117.461 58.0526 117.311 56.4755L117.303 56.3913C117.153 54.8216 117.826 51.2338 118.798 51.3085C119.769 51.3833 120.442 53.1772 120.592 56.3913ZM124.927 56.3913C125.047 58.9626 124.484 60.5772 123.582 60.5772C122.26 60.5772 122.02 58.0526 121.87 56.4755L121.862 56.3913C121.713 54.8216 122.087 51.9065 122.984 51.9065C123.958 51.9065 124.778 53.1772 124.927 56.3913ZM128.739 56.3913C128.859 58.9626 128.371 60.5772 127.468 60.5772C126.123 60.5772 126.198 57.961 126.048 56.3913C125.899 54.8216 126.272 52.2802 127.169 52.2802C128.144 52.2802 128.59 53.1772 128.739 56.3913ZM79.1819 44.5813L86.0586 45.852C83.9906 45.7274 79.7708 45.1793 79.1819 45.1793C78.4344 45.1793 78.5091 44.5066 79.1819 44.5813ZM75.8182 47.8702C77.4328 49.4847 76.7401 53.0775 76.192 54.6721C76.8398 54.4728 78.1653 53.4313 78.2849 50.86C78.4045 48.2887 76.6903 47.7954 75.8182 47.8702ZM79.3313 48.6924C80.4675 50.9647 79.3563 53.6257 78.6586 54.6721C79.8546 54.5526 80.4027 52.928 80.5273 52.1307H84.6384C84.9972 50.3368 83.8411 49.2904 83.2182 48.9914L79.3313 48.6924ZM85.0869 49.2156C86.4622 51.0693 85.6599 54.0243 85.0869 55.2701C85.8044 54.9711 86.3326 53.2021 86.5071 52.355C86.7064 52.3799 87.12 52.4148 87.1798 52.355C87.1798 49.4249 85.7845 49.0412 85.0869 49.2156ZM75.6687 27.9127H73.8748V42.3389C74.398 41.9652 75.9677 41.8904 77.4627 42.3389C78.6586 42.6977 78.9078 41.7409 78.8829 41.2177C78.7334 34.5901 78.4344 21.0509 78.4344 19.9148C78.4344 18.7786 77.0889 18.4946 76.4162 18.4946C74.4728 18.4946 73.5758 19.0178 73.5758 19.7653V26.7168H75.4445V19.2421C76.9992 18.9431 77.7367 19.566 77.9112 19.9148V41.2177H75.6687V27.9127ZM83.2929 22.7552V34.042C82.9939 33.5187 82.5455 24.3996 82.6202 22.9047C82.68 21.7087 80.6768 22.0077 80.6768 21.2602C80.6768 20.178 83.2929 22.0824 83.2929 22.7552ZM68.2688 53.4762C68.5728 57.4283 67.1476 59.3812 65.7274 59.3812C64.6809 59.3812 63.2607 59.3065 62.9618 53.4762C62.7701 49.7388 64.6062 47.9449 65.6526 47.9449C66.9981 48.0944 67.9698 49.5893 68.2688 53.4762ZM59.4486 53.5509L59.0002 54.5974C59.2991 54.5974 59.9719 53.8998 60.2709 53.5509C60.3705 52.4547 60.5848 50.0079 60.6446 48.9914C60.7044 47.9748 60.2709 47.7705 60.0466 47.7954C48.2117 47.9698 24.3175 48.3186 23.4206 48.3186C22.5236 48.3186 22.2994 48.9665 22.2994 49.2904C22.2745 49.8883 22.2396 51.4281 22.2994 52.8035C22.3592 54.1788 23.0718 54.423 23.4206 54.3732H55.5618C56.5186 54.3732 56.7079 53.825 56.683 53.5509L57.0567 48.9914H59.4486V53.5509ZM59.0002 49.9631H58.1032C58.1779 50.0877 58.3872 50.3368 58.6264 50.3368C58.8656 50.3368 58.9752 50.0877 59.0002 49.9631Z" fill="white"/>
<path fill-rule="evenodd" clip-rule="evenodd" d="M30.2226 44.2076C30.2226 43.8488 30.8205 36.6332 31.1195 33.0703C31.1195 32.5719 31.6278 31.5753 33.6609 31.5753C35.694 31.5753 42.0326 31.2763 44.9477 31.1268C45.4211 30.9773 46.3679 31.0371 46.3679 32.4723C46.3679 33.9074 46.0689 40.5948 45.9194 43.7591C45.9194 44.3072 45.5606 45.4035 44.1255 45.4035C42.6904 45.4035 35.0064 45.7025 31.3438 45.852C30.9307 45.852 30.1282 45.5231 30.2226 44.2076ZM31.867 34.4905C36.3767 34.4157 45.3962 34.1915 45.3962 33.8925C45.3962 33.5187 32.3902 34.042 31.867 34.4905ZM31.867 37.4803C35.704 37.0817 43.7817 36.404 45.3962 36.8824C44.9776 37.3009 36.2023 37.4554 31.867 37.4803ZM31.3438 40.4702C35.7289 40.4951 44.5889 40.4403 44.9477 40.0217C45.3962 39.4985 31.867 40.0217 31.3438 40.4702ZM44.9477 43.1611L31.3438 43.4601C35.1559 42.4884 43.5724 42.2791 44.9477 42.9369V43.1611Z" fill="white"/>
<path fill-rule="evenodd" clip-rule="evenodd" d="M53.2446 52.8782C43.4777 53.3018 23.8392 54.0592 23.4206 53.7004C23.002 53.3417 23.0469 52.7038 23.1216 52.4297V50.0378C23.1216 49.5894 22.9721 49.5146 24.5418 49.5146C26.2161 49.5146 33.7606 49.7139 37.3235 49.8136H27.7559V52.5792L53.2446 52.8782ZM27.0084 50.4863H24.2428V51.0095H27.0084V50.4863Z" fill="white"/>
<path fill-rule="evenodd" clip-rule="evenodd" d="M49.881 50.4863C49.881 50.0378 50.0754 49.1409 51.7497 49.1409H55.0386C55.3625 49.1907 55.9654 49.5445 55.786 50.5611C55.6066 51.5776 54.8642 51.7819 54.5153 51.757H50.7032C50.4043 51.757 49.881 51.1441 49.881 50.4863ZM52.0487 49.9631H54.5153V50.5611C53.6931 50.4863 52.2729 50.5611 52.0487 50.5611C52.0487 50.7405 51.6999 50.8351 51.5255 50.86C51.376 50.86 51.077 50.7554 51.077 50.3368C51.077 49.9182 51.7248 49.9133 52.0487 49.9631Z" fill="white"/>
<path d="M64.1577 53.5509C64.3321 55.4445 65.2042 58.6636 67.2971 56.3913C67.0479 57.2385 66.2805 58.7683 65.2042 58.1105C64.1278 57.4527 63.7092 54.8216 64.1577 53.5509Z" fill="white"/>
<path d="M64.9799 53.8499C64.9793 54.6223 65.2027 56.2119 66.1011 56.3913C66.9995 56.5707 67.3724 54.6721 67.4466 53.7004C67.5213 52.9281 67.4017 51.3235 66.3254 51.0843C65.249 50.8451 64.9799 52.8284 64.9799 53.8499Z" fill="white"/>
<path d="M64.4567 50.1126C65.0959 49.7192 66.5404 49.2434 67.268 50.4371C65.8477 48.0506 64.8032 49.2217 64.4567 50.1126Z" fill="white"/>
<path d="M93.2343 52.4297C93.608 53.9247 94.0715 57.2135 92.9353 58.4095C93.1097 58.4842 93.5034 58.544 93.6828 58.1853C93.6828 58.5092 93.4884 59.0523 92.7111 58.6337C91.9337 58.2152 91.6895 55.7186 91.6646 54.5227C91.6148 53.1523 91.8141 50.4116 93.01 50.4116C94.206 50.4116 94.5548 53.8499 94.5797 55.5691C94.3306 54.5227 93.7047 52.4462 93.3838 52.2055C93.0848 51.9813 93.1595 52.1307 93.2343 52.4297Z" fill="white"/>
<path d="M99.812 52.8035C100.186 54.2984 100.649 57.5873 99.513 58.7832C99.6874 58.858 100.081 58.9178 100.261 58.559C100.261 58.8829 100.066 59.4261 99.2888 59.0075C98.5114 58.5889 98.2673 56.0923 98.2423 54.8964C98.1925 53.526 98.3918 50.7853 99.5878 50.7853C100.784 50.7853 101.133 54.2237 101.157 55.9428C100.908 54.8964 100.282 52.8199 99.9615 52.5792C99.6625 52.355 99.7373 52.5045 99.812 52.8035Z" fill="white"/>
<path d="M119.022 59.2317C119.47 58.1853 119.68 55.6588 119.321 54.5227C119.595 54.722 120.128 55.5841 120.068 56.8398C120.193 55.5193 120.233 52.8633 119.097 52.8035C118.648 52.8035 118.065 53.6107 118.125 55.9428C118.185 58.275 118.499 59.8297 119.022 59.8297C119.321 59.8297 119.426 59.4859 119.545 59.0075C119.446 59.1071 119.201 59.2915 119.022 59.2317Z" fill="white"/>
<path d="M123.507 59.0822C123.955 58.0358 124.015 55.9578 123.656 54.8216C123.93 55.021 124.464 55.883 124.404 57.1388C124.528 55.8183 124.718 53.3865 123.582 53.3267C123.133 53.3267 122.625 53.6107 122.685 55.9428C122.744 58.275 122.984 59.6054 123.507 59.6054C123.806 59.6054 123.91 59.3364 124.03 58.858C123.93 58.9576 123.686 59.142 123.507 59.0822Z" fill="white"/>
<path d="M127.468 59.0822C127.917 58.0358 127.902 55.9578 127.543 54.8216C127.817 55.021 128.35 55.883 128.291 57.1388C128.355 55.7934 128.605 53.6855 127.468 53.6257C127.02 53.6257 126.736 54.0592 126.796 56.3913C126.855 58.7234 126.945 59.456 127.468 59.456C127.767 59.456 127.797 59.3364 127.917 58.858C127.817 58.9576 127.648 59.142 127.468 59.0822Z" fill="white"/>
<path d="M18.8061 89.6212V92.5308H11.6585V110.495H8.2744V92.5308H1.12674V89.6212H18.8061ZM26.0376 110.811C24.4562 110.811 23.0646 110.484 21.8628 109.831C20.661 109.177 19.7227 108.239 19.048 107.016C18.3944 105.772 18.0676 104.296 18.0676 102.588C18.0676 100.88 18.3944 99.4149 19.048 98.192C19.7227 96.948 20.6505 95.9992 21.8312 95.3456C23.0119 94.692 24.3508 94.3652 25.8478 94.3652C27.387 94.3652 28.6942 94.6815 29.7695 95.314C30.8449 95.9465 31.6671 96.811 32.2364 97.9074C32.8057 99.0038 33.0904 100.248 33.0904 101.639C33.0904 102.019 33.0798 102.377 33.0587 102.715C33.0376 103.052 33.006 103.347 32.9638 103.6H20.2499V101.007H31.4774L29.8012 101.513C29.8012 100.079 29.4427 98.9827 28.7259 98.2237C28.009 97.4435 27.0285 97.0535 25.7846 97.0535C24.8779 97.0535 24.0872 97.2643 23.4125 97.686C22.7378 98.1077 22.2213 98.7402 21.8628 99.5836C21.5044 100.406 21.3252 101.418 21.3252 102.62C21.3252 103.801 21.5149 104.802 21.8945 105.624C22.274 106.447 22.8116 107.069 23.5074 107.49C24.2032 107.912 25.0255 108.123 25.9743 108.123C27.0285 108.123 27.8825 107.923 28.5361 107.522C29.1897 107.121 29.7063 106.563 30.0858 105.846L32.7741 107.111C32.3946 107.87 31.878 108.534 31.2244 109.103C30.5918 109.651 29.8328 110.073 28.9472 110.368C28.0617 110.664 27.0918 110.811 26.0376 110.811ZM37.3639 110.495V94.6815H40.3685L40.5266 97.3381C41.0748 96.326 41.8022 95.5775 42.7089 95.0926C43.6366 94.6077 44.617 94.3652 45.6502 94.3652C46.7887 94.3652 47.8324 94.6287 48.7812 95.1559C49.7511 95.6619 50.4785 96.4315 50.9635 97.4646C51.3008 96.7688 51.7647 96.189 52.3551 95.7251C52.9454 95.2613 53.599 94.9239 54.3159 94.7131C55.0328 94.4811 55.7391 94.3652 56.4349 94.3652C57.447 94.3652 58.3958 94.576 59.2813 94.9977C60.1669 95.4194 60.8838 96.0625 61.432 96.927C61.9802 97.7914 62.2543 98.8984 62.2543 100.248V110.495H58.8702V100.785C58.8702 99.4993 58.5645 98.5716 57.953 98.0023C57.3416 97.433 56.5614 97.1483 55.6126 97.1483C54.8747 97.1483 54.1894 97.3276 53.5569 97.686C52.9454 98.0444 52.4499 98.5821 52.0704 99.299C51.6909 99.9948 51.5011 100.859 51.5011 101.892V110.495H48.1171V100.785C48.1171 99.4993 47.8113 98.5716 47.1999 98.0023C46.5884 97.433 45.8083 97.1483 44.8595 97.1483C44.227 97.1483 43.5944 97.317 42.9619 97.6544C42.3293 97.9917 41.8022 98.5188 41.3805 99.2357C40.9589 99.9526 40.748 100.901 40.748 102.082V110.495H37.3639ZM85.7599 104.296C85.3804 105.835 84.7373 107.09 83.8307 108.06C82.9451 109.029 81.8593 109.736 80.5731 110.179C79.308 110.6 77.9059 110.811 76.3667 110.811C74.2161 110.811 72.3501 110.389 70.7688 109.546C69.2085 108.682 68.0067 107.448 67.1633 105.846C66.32 104.243 65.8983 102.314 65.8983 100.058C65.8983 97.802 66.32 95.8727 67.1633 94.2703C68.0067 92.6679 69.2085 91.445 70.7688 90.6016C72.3501 89.7371 74.2056 89.3049 76.3351 89.3049C77.8532 89.3049 79.2448 89.5157 80.5099 89.9374C81.796 90.3591 82.8819 91.0127 83.7674 91.8983C84.653 92.7838 85.2539 93.933 85.5702 95.3456L79.9722 97.5911C79.7403 96.2417 79.3291 95.3456 78.7388 94.9028C78.1695 94.4601 77.4315 94.2387 76.5249 94.2387C75.6815 94.2387 74.9541 94.4601 74.3426 94.9028C73.7523 95.3245 73.2989 95.9676 72.9827 96.8321C72.6875 97.6755 72.5399 98.7508 72.5399 100.058C72.5399 101.344 72.6769 102.419 72.951 103.284C73.2462 104.148 73.689 104.802 74.2794 105.245C74.8908 105.667 75.6815 105.877 76.6514 105.877C77.5159 105.877 78.2433 105.624 78.8336 105.118C79.424 104.612 79.8141 103.822 80.0038 102.746L85.7599 104.296ZM96.4723 100.532C96.4723 99.942 96.3141 99.4782 95.9979 99.1408C95.7027 98.7824 95.2599 98.6032 94.6695 98.6032C94.1213 98.6032 93.6469 98.7508 93.2463 99.046C92.8668 99.3411 92.6243 99.8999 92.5189 100.722L87.1107 99.7417C87.3216 98.0972 88.0912 96.7899 89.4195 95.82C90.7478 94.8501 92.6454 94.3652 95.1123 94.3652C96.7991 94.3652 98.2117 94.6077 99.3503 95.0926C100.51 95.5565 101.374 96.2417 101.944 97.1483C102.534 98.055 102.829 99.1408 102.829 100.406V105.719C102.829 106.563 103.209 106.984 103.968 106.984C104.284 106.984 104.527 106.942 104.695 106.858L104.379 110.305C103.683 110.642 102.819 110.811 101.786 110.811C100.879 110.811 100.078 110.674 99.3819 110.4C98.6861 110.105 98.138 109.683 97.7373 109.135C97.3367 108.587 97.1364 107.87 97.1364 106.984V106.731L97.769 106.636C97.769 107.48 97.5054 108.218 96.9783 108.85C96.4723 109.483 95.7976 109.968 94.9542 110.305C94.1319 110.642 93.2147 110.811 92.2026 110.811C91.1062 110.811 90.168 110.642 89.3879 110.305C88.6077 109.968 88.0068 109.483 87.5851 108.85C87.1845 108.218 86.9842 107.448 86.9842 106.542C86.9842 105.382 87.3321 104.433 88.0279 103.695C88.7448 102.957 89.8201 102.451 91.2538 102.177L96.9783 100.975L96.9467 103.663L94.6063 104.201C94.0792 104.307 93.6891 104.486 93.4361 104.739C93.2042 104.971 93.0882 105.298 93.0882 105.719C93.0882 106.12 93.2252 106.436 93.4993 106.668C93.7734 106.879 94.1108 106.984 94.5114 106.984C94.7855 106.984 95.0385 106.942 95.2705 106.858C95.5024 106.773 95.7027 106.647 95.8714 106.478C96.0611 106.31 96.2087 106.099 96.3141 105.846C96.4196 105.593 96.4723 105.287 96.4723 104.929V100.532ZM106.244 110.495V94.6815H111.969L112.159 98.3818C112.517 97.1378 113.076 96.1574 113.835 95.4405C114.615 94.7236 115.627 94.3652 116.871 94.3652C117.314 94.3652 117.672 94.4074 117.946 94.4917C118.221 94.5549 118.421 94.6393 118.547 94.7447L117.978 99.9315C117.767 99.8472 117.493 99.7734 117.156 99.7101C116.818 99.6469 116.428 99.6152 115.986 99.6152C115.353 99.6152 114.784 99.7312 114.278 99.9631C113.772 100.195 113.371 100.543 113.076 101.007C112.781 101.45 112.633 102.019 112.633 102.715V110.495H106.244ZM135.899 89.9691L136.342 94.0489C136.152 94.0067 135.983 93.9857 135.836 93.9857C135.688 93.9646 135.541 93.954 135.393 93.954C134.486 93.954 133.822 94.186 133.401 94.6498C132.979 95.0926 132.768 95.6197 132.768 96.2312L130.776 95.567C130.776 94.6815 130.923 93.8064 131.218 92.942C131.514 92.0775 131.988 91.3606 132.642 90.7914C133.316 90.2221 134.202 89.9374 135.298 89.9374C135.383 89.9374 135.477 89.9374 135.583 89.9374C135.688 89.9374 135.794 89.948 135.899 89.9691ZM130.27 106.478C132.23 106.478 133.717 106.879 134.729 107.68C135.762 108.46 136.279 109.63 136.279 111.191C136.279 112.582 135.91 113.731 135.172 114.638C134.455 115.545 133.422 116.209 132.072 116.63C130.723 117.073 129.099 117.295 127.202 117.295C124.208 117.295 122.068 116.957 120.781 116.283C119.516 115.608 118.884 114.649 118.884 113.405C118.884 112.519 119.274 111.813 120.054 111.286C120.834 110.78 122.11 110.516 123.881 110.495L123.786 111.033C122.289 110.864 121.193 110.463 120.497 109.831C119.822 109.177 119.485 108.323 119.485 107.269C119.485 106.194 119.917 105.34 120.781 104.707C121.646 104.075 122.753 103.737 124.102 103.695L126.19 104.644H125.62C124.861 104.665 124.334 104.76 124.039 104.929C123.744 105.097 123.596 105.319 123.596 105.593C123.596 105.888 123.712 106.109 123.944 106.257C124.197 106.404 124.587 106.478 125.114 106.478H130.27ZM127.265 113.31C128.214 113.31 128.994 113.257 129.605 113.152C130.238 113.067 130.702 112.93 130.997 112.74C131.313 112.551 131.471 112.329 131.471 112.076C131.471 111.865 131.398 111.697 131.25 111.57C131.102 111.465 130.818 111.412 130.396 111.412H124.482C124.187 111.412 123.955 111.486 123.786 111.633C123.617 111.781 123.533 111.971 123.533 112.203C123.533 112.561 123.86 112.835 124.513 113.025C125.188 113.215 126.105 113.31 127.265 113.31ZM127.581 94.3652C129.331 94.3652 130.797 94.576 131.977 94.9977C133.179 95.3983 134.086 95.9992 134.697 96.8005C135.33 97.5806 135.646 98.5716 135.646 99.7734C135.646 100.933 135.33 101.913 134.697 102.715C134.086 103.516 133.179 104.117 131.977 104.517C130.797 104.918 129.331 105.118 127.581 105.118C124.946 105.118 122.943 104.665 121.572 103.758C120.223 102.852 119.548 101.523 119.548 99.7734C119.548 98.5716 119.854 97.5806 120.465 96.8005C121.077 95.9992 121.983 95.3983 123.185 94.9977C124.387 94.576 125.852 94.3652 127.581 94.3652ZM127.581 97.8125C127.033 97.8125 126.59 97.9706 126.253 98.2869C125.937 98.6032 125.778 99.0881 125.778 99.7417C125.778 100.374 125.937 100.859 126.253 101.197C126.59 101.513 127.033 101.671 127.581 101.671C128.129 101.671 128.562 101.513 128.878 101.197C129.215 100.859 129.384 100.374 129.384 99.7417C129.384 99.0881 129.215 98.6032 128.878 98.2869C128.562 97.9706 128.129 97.8125 127.581 97.8125ZM146.6 100.532C146.6 99.942 146.441 99.4782 146.125 99.1408C145.83 98.7824 145.387 98.6032 144.797 98.6032C144.249 98.6032 143.774 98.7508 143.374 99.046C142.994 99.3411 142.752 99.8999 142.646 100.722L137.238 99.7417C137.449 98.0972 138.218 96.7899 139.547 95.82C140.875 94.8501 142.773 94.3652 145.24 94.3652C146.926 94.3652 148.339 94.6077 149.478 95.0926C150.637 95.5565 151.502 96.2417 152.071 97.1483C152.661 98.055 152.957 99.1408 152.957 100.406V105.719C152.957 106.563 153.336 106.984 154.095 106.984C154.411 106.984 154.654 106.942 154.823 106.858L154.506 110.305C153.81 110.642 152.946 110.811 151.913 110.811C151.006 110.811 150.205 110.674 149.509 110.4C148.813 110.105 148.265 109.683 147.865 109.135C147.464 108.587 147.264 107.87 147.264 106.984V106.731L147.896 106.636C147.896 107.48 147.633 108.218 147.106 108.85C146.6 109.483 145.925 109.968 145.081 110.305C144.259 110.642 143.342 110.811 142.33 110.811C141.234 110.811 140.295 110.642 139.515 110.305C138.735 109.968 138.134 109.483 137.712 108.85C137.312 108.218 137.112 107.448 137.112 106.542C137.112 105.382 137.459 104.433 138.155 103.695C138.872 102.957 139.947 102.451 141.381 102.177L147.106 100.975L147.074 103.663L144.734 104.201C144.206 104.307 143.816 104.486 143.563 104.739C143.331 104.971 143.216 105.298 143.216 105.719C143.216 106.12 143.353 106.436 143.627 106.668C143.901 106.879 144.238 106.984 144.639 106.984C144.913 106.984 145.166 106.942 145.398 106.858C145.63 106.773 145.83 106.647 145.999 106.478C146.188 106.31 146.336 106.099 146.441 105.846C146.547 105.593 146.6 105.287 146.6 104.929V100.532Z" fill="white"/>
</svg>
