<svg width="16" height="16" viewBox="0 0 16 16" fill="none" xmlns="http://www.w3.org/2000/svg">
<path d="M1.00843 10.3247L3.78576 13.102C4.16082 13.477 4.66944 13.6876 5.19976 13.6876C5.73009 13.6876 6.23871 13.477 6.61376 13.102L15.1911 4.52471C15.3125 4.39897 15.3797 4.23057 15.3782 4.05577C15.3767 3.88097 15.3066 3.71376 15.183 3.59016C15.0594 3.46655 14.8922 3.39644 14.7174 3.39492C14.5426 3.3934 14.3742 3.4606 14.2484 3.58204L5.6711 12.1594C5.54608 12.2844 5.37654 12.3546 5.19976 12.3546C5.02299 12.3546 4.85345 12.2844 4.72843 12.1594L1.9511 9.38204C1.82536 9.2606 1.65696 9.1934 1.48216 9.19492C1.30736 9.19644 1.14016 9.26655 1.01655 9.39016C0.892946 9.51377 0.822833 9.68097 0.821314 9.85577C0.819795 10.0306 0.886992 10.199 1.00843 10.3247V10.3247Z" fill="white"/>
</svg>
