<svg width="14" height="14" viewBox="0 0 14 14" fill="none" xmlns="http://www.w3.org/2000/svg">
<g clip-path="url(#clip0_1033_2008)">
<path d="M0 11.0835C0.00092625 11.8568 0.308514 12.5981 0.855295 13.1449C1.40208 13.6916 2.1434 13.9992 2.91667 14.0002H11.0833C11.8566 13.9992 12.5979 13.6916 13.1447 13.1449C13.6915 12.5981 13.9991 11.8568 14 11.0835V5.8335H0V11.0835ZM9.91667 8.4585C10.0897 8.4585 10.2589 8.50981 10.4028 8.60596C10.5467 8.70211 10.6588 8.83876 10.7251 8.99865C10.7913 9.15853 10.8086 9.33447 10.7749 9.5042C10.7411 9.67393 10.6578 9.82984 10.5354 9.95221C10.413 10.0746 10.2571 10.1579 10.0874 10.1917C9.91764 10.2254 9.7417 10.2081 9.58182 10.1419C9.42193 10.0757 9.28528 9.96351 9.18913 9.81962C9.09298 9.67573 9.04167 9.50655 9.04167 9.3335C9.04167 9.10143 9.13385 8.87887 9.29795 8.71478C9.46204 8.55068 9.6846 8.4585 9.91667 8.4585ZM7 8.4585C7.17306 8.4585 7.34223 8.50981 7.48612 8.60596C7.63002 8.70211 7.74217 8.83876 7.80839 8.99865C7.87462 9.15853 7.89195 9.33447 7.85819 9.5042C7.82442 9.67393 7.74109 9.82984 7.61872 9.95221C7.49635 10.0746 7.34044 10.1579 7.1707 10.1917C7.00097 10.2254 6.82504 10.2081 6.66515 10.1419C6.50527 10.0757 6.36861 9.96351 6.27246 9.81962C6.17632 9.67573 6.125 9.50655 6.125 9.3335C6.125 9.10143 6.21719 8.87887 6.38128 8.71478C6.54538 8.55068 6.76794 8.4585 7 8.4585ZM4.08333 8.4585C4.25639 8.4585 4.42556 8.50981 4.56946 8.60596C4.71335 8.70211 4.8255 8.83876 4.89173 8.99865C4.95795 9.15853 4.97528 9.33447 4.94152 9.5042C4.90776 9.67393 4.82442 9.82984 4.70205 9.95221C4.57968 10.0746 4.42377 10.1579 4.25404 10.1917C4.0843 10.2254 3.90837 10.2081 3.74849 10.1419C3.5886 10.0757 3.45194 9.96351 3.3558 9.81962C3.25965 9.67573 3.20833 9.50655 3.20833 9.3335C3.20833 9.10143 3.30052 8.87887 3.46461 8.71478C3.62871 8.55068 3.85127 8.4585 4.08333 8.4585Z" fill="#3196F8"/>
<path d="M11.0833 1.16667H10.5V0.583333C10.5 0.428624 10.4385 0.280251 10.3291 0.170854C10.2197 0.0614582 10.0714 0 9.91667 0C9.76196 0 9.61358 0.0614582 9.50419 0.170854C9.39479 0.280251 9.33333 0.428624 9.33333 0.583333V1.16667H4.66667V0.583333C4.66667 0.428624 4.60521 0.280251 4.49581 0.170854C4.38642 0.0614582 4.23804 0 4.08333 0C3.92862 0 3.78025 0.0614582 3.67085 0.170854C3.56146 0.280251 3.5 0.428624 3.5 0.583333V1.16667H2.91667C2.1434 1.16759 1.40208 1.47518 0.855295 2.02196C0.308514 2.56874 0.00092625 3.31007 0 4.08333L0 4.66667H14V4.08333C13.9991 3.31007 13.6915 2.56874 13.1447 2.02196C12.5979 1.47518 11.8566 1.16759 11.0833 1.16667Z" fill="#3196F8"/>
</g>
<defs>
<clipPath id="clip0_1033_2008">
<rect width="14" height="14" fill="white"/>
</clipPath>
</defs>
</svg>
