<svg width="14" height="14" viewBox="0 0 14 14" fill="none" xmlns="http://www.w3.org/2000/svg">
<g clip-path="url(#clip0_1016_1738)">
<path d="M0.583333 14C0.428624 14 0.280251 13.9385 0.170854 13.8291C0.0614582 13.7197 0 13.5714 0 13.4167V2.33333C0 1.71449 0.245833 1.121 0.683418 0.683418C1.121 0.245833 1.71449 0 2.33333 0L6.41667 0C7.0355 0 7.629 0.245833 8.06658 0.683418C8.50417 1.121 8.75 1.71449 8.75 2.33333V5.25C8.75 5.86884 8.50417 6.46233 8.06658 6.89992C7.629 7.3375 7.0355 7.58333 6.41667 7.58333H1.16667V13.4167C1.16667 13.5714 1.10521 13.7197 0.995812 13.8291C0.886416 13.9385 0.738043 14 0.583333 14V14ZM11.6667 2.33333H9.91667V5.25C9.91574 6.17797 9.54669 7.06767 8.89052 7.72385C8.23434 8.38003 7.34464 8.74907 6.41667 8.75H6.15767C6.36088 9.10351 6.65345 9.39738 7.00606 9.60215C7.35867 9.80691 7.75892 9.91538 8.16667 9.91667H11.6667C12.2855 9.91667 12.879 9.67083 13.3166 9.23325C13.7542 8.79566 14 8.20217 14 7.58333V4.66667C14 4.04783 13.7542 3.45434 13.3166 3.01675C12.879 2.57917 12.2855 2.33333 11.6667 2.33333Z" fill="#3B82F6"/>
</g>
<defs>
<clipPath id="clip0_1016_1738">
<rect width="14" height="14" fill="white"/>
</clipPath>
</defs>
</svg>
