<svg width="24" height="24" viewBox="0 0 24 24" fill="none" xmlns="http://www.w3.org/2000/svg">
<g clip-path="url(#clip0_873_2257)">
<path d="M18.3577 7.36088C18.1861 7.30783 18.0304 7.21312 17.9044 7.08522C17.7785 6.95731 17.6861 6.80019 17.6357 6.62788C17.1065 4.9275 16.0251 3.45229 14.5628 2.43592C13.1006 1.41955 11.341 0.920145 9.56276 1.0168C7.78458 1.11346 6.08947 1.80066 4.74597 2.96954C3.40247 4.13843 2.48737 5.72217 2.14565 7.46988C1.7941 9.23656 2.07741 11.0706 2.94565 12.6489C1.93428 13.1711 1.11187 13.9969 0.593887 15.0105C0.0759094 16.024 -0.111613 17.1743 0.0576533 18.2999C0.318304 19.6077 1.01847 20.787 2.04187 21.642C3.06527 22.4969 4.35033 22.9761 5.68365 22.9999H14.7837C19.8567 22.9999 23.6347 19.9729 23.9727 15.6379C24.124 13.8242 23.6492 12.0135 22.6275 10.5074C21.6058 9.00125 20.0988 7.89074 18.3577 7.36088ZM18.6657 18.7469L17.0797 20.1609C16.8079 20.4299 16.4857 20.6425 16.1314 20.7865C15.7772 20.9305 15.398 21.003 15.0157 20.9999C14.6191 21.0007 14.2263 20.9232 13.8597 20.7718C13.4932 20.6205 13.1601 20.3982 12.8797 20.1179L11.3357 18.7439C11.2376 18.6566 11.1576 18.5508 11.1004 18.4325C11.0432 18.3143 11.0098 18.186 11.0022 18.0549C10.9868 17.7901 11.0773 17.53 11.2537 17.3319C11.43 17.1338 11.6779 17.0138 11.9427 16.9985C12.0738 16.9908 12.2051 17.0091 12.3292 17.0523C12.4532 17.0954 12.5676 17.1626 12.6657 17.2499L14.0007 18.4439V10.9999C14.0007 10.7347 14.106 10.4803 14.2935 10.2928C14.4811 10.1052 14.7354 9.99988 15.0007 9.99988C15.2659 9.99988 15.5202 10.1052 15.7078 10.2928C15.8953 10.4803 16.0007 10.7347 16.0007 10.9999V18.4449L17.3357 17.2529C17.5338 17.0765 17.7938 16.9861 18.0586 17.0015C18.3234 17.0168 18.5713 17.1368 18.7477 17.3349C18.924 17.533 19.0145 17.7931 18.9991 18.0579C18.9837 18.3227 18.8638 18.5705 18.6657 18.7469Z" fill="#fff"/>
</g>
<defs>
<clipPath id="clip0_873_2257">
<rect width="24" height="24" fill="white"/>
</clipPath>
</defs>
</svg>
