<svg width="24" height="24" viewBox="0 0 24 24" fill="none" xmlns="http://www.w3.org/2000/svg">
<g clip-path="url(#clip0_873_2308)">
<path d="M9.87822 18.122C11.0494 19.294 12.9489 19.2946 14.1209 18.1234C14.1213 18.1229 14.1218 18.1225 14.1222 18.122L17.3332 14.911C17.7036 14.5014 17.6718 13.869 17.2622 13.4986C16.8807 13.1537 16.3 13.1543 15.9192 13.5L12.9933 16.427L13.0002 1.00003C13.0002 0.447703 12.5525 0 12.0002 0C11.4479 0 11.0002 0.447703 11.0002 0.999984L10.9912 16.408L8.08122 13.5C7.69047 13.1095 7.05719 13.1098 6.66672 13.5005C6.27625 13.8913 6.27649 14.5245 6.66724 14.915L9.87822 18.122Z" fill="#374957"/>
<path d="M23 16C22.4477 16 22 16.4477 22 17V21C22 21.5523 21.5523 22 21 22H3C2.44772 22 2.00002 21.5523 2.00002 21V17C2.00002 16.4477 1.55231 16 1.00003 16C0.447703 16 0 16.4477 0 17V21C0 22.6569 1.34316 24 3 24H21C22.6568 24 24 22.6569 24 21V17C24 16.4477 23.5523 16 23 16Z" fill="#374957"/>
</g>
<defs>
<clipPath id="clip0_873_2308">
<rect width="24" height="24" fill="white"/>
</clipPath>
</defs>
</svg>
