<svg width="24" height="24" viewBox="0 0 24 24" fill="none" xmlns="http://www.w3.org/2000/svg">
<g clip-path="url(#clip0_575_620)">
<path d="M9.28804 13.0669C6.97104 13.5129 5.82304 16.0929 5.32504 17.7009C5.27808 17.8508 5.26708 18.0096 5.29294 18.1645C5.31881 18.3195 5.3808 18.4661 5.4739 18.5926C5.567 18.7191 5.68859 18.8219 5.82882 18.8927C5.96905 18.9634 6.12398 19.0002 6.28104 18.9999H10C10.4172 19 10.8297 18.9131 11.2113 18.7447C11.593 18.5764 11.9353 18.3303 12.2165 18.0222C12.4977 17.7141 12.7115 17.3508 12.8444 16.9554C12.9772 16.56 13.0261 16.1413 12.988 15.7259C12.9349 15.3015 12.7947 14.8926 12.5762 14.5249C12.3577 14.1572 12.0657 13.8386 11.7183 13.589C11.371 13.3393 10.9758 13.1641 10.5577 13.0743C10.1395 12.9845 9.70725 12.982 9.28804 13.0669Z" fill="white"/>
<path d="M23 8.979C22.7348 8.979 22.4804 9.08436 22.2929 9.27189C22.1054 9.45943 22 9.71378 22 9.979V15H18C17.2044 15 16.4413 15.3161 15.8787 15.8787C15.3161 16.4413 15 17.2044 15 18V22H5C4.20435 22 3.44129 21.6839 2.87868 21.1213C2.31607 20.5587 2 19.7956 2 19V5C2 4.20435 2.31607 3.44129 2.87868 2.87868C3.44129 2.31607 4.20435 2 5 2H16.042C16.3072 2 16.5616 1.89464 16.7491 1.70711C16.9366 1.51957 17.042 1.26522 17.042 1C17.042 0.734784 16.9366 0.48043 16.7491 0.292893C16.5616 0.105357 16.3072 0 16.042 0L5 0C3.67441 0.00158786 2.40356 0.528882 1.46622 1.46622C0.528882 2.40356 0.00158786 3.67441 0 5L0 19C0.00158786 20.3256 0.528882 21.5964 1.46622 22.5338C2.40356 23.4711 3.67441 23.9984 5 24H16.343C16.9998 24.0019 17.6504 23.8734 18.2572 23.6221C18.8639 23.3708 19.4149 23.0017 19.878 22.536L22.536 19.878C23.0017 19.4149 23.3708 18.8639 23.6221 18.2572C23.8734 17.6504 24.0019 16.9998 24 16.343V9.979C24 9.71378 23.8946 9.45943 23.7071 9.27189C23.5196 9.08436 23.2652 8.979 23 8.979ZM18.464 21.122C18.0607 21.5208 17.5534 21.798 17 21.922V18C17 17.7348 17.1054 17.4804 17.2929 17.2929C17.4804 17.1054 17.7348 17 18 17H21.925C21.801 17.5534 21.5238 18.0607 21.125 18.464L18.464 21.122Z" fill="white"/>
<path d="M14.5661 14.1698C14.3684 14.1698 14.1751 14.1111 14.0107 14.0012C13.8462 13.8913 13.7181 13.7352 13.6424 13.5525C13.5668 13.3698 13.547 13.1688 13.5855 12.9748C13.6241 12.7808 13.7193 12.6027 13.8591 12.4628L21.7121 4.60983C21.7999 4.52224 21.8695 4.4182 21.917 4.30366C21.9646 4.18912 21.989 4.06633 21.989 3.94233C21.989 3.81833 21.9646 3.69554 21.917 3.581C21.8695 3.46647 21.7999 3.36242 21.7121 3.27483C21.6228 3.18201 21.5147 3.10943 21.395 3.06198C21.2752 3.01454 21.1467 2.99335 21.0181 2.99983C20.8896 3.00263 20.763 3.03196 20.6463 3.086C20.5296 3.14003 20.4254 3.2176 20.3401 3.31383L12.7401 11.7208C12.5623 11.9176 12.3136 12.0357 12.0487 12.0491C11.7838 12.0625 11.5244 11.9702 11.3276 11.7923C11.1308 11.6145 11.0127 11.3658 10.9993 11.1009C10.9859 10.836 11.0783 10.5766 11.2561 10.3798L18.8561 1.97983C19.1226 1.6823 19.4468 1.44201 19.809 1.27355C20.1712 1.10509 20.5638 1.01197 20.9631 0.999831C21.363 0.991261 21.7606 1.06315 22.1321 1.21123C22.5037 1.35931 22.8417 1.58056 23.1261 1.86183C23.6774 2.41431 23.9869 3.16289 23.9869 3.94333C23.9869 4.72378 23.6774 5.47235 23.1261 6.02483L15.2731 13.8778C15.1804 13.9708 15.0702 14.0445 14.9489 14.0946C14.8275 14.1448 14.6974 14.1703 14.5661 14.1698Z" fill="white"/>
</g>
<defs>
<clipPath id="clip0_575_620">
<rect width="24" height="24" fill="white"/>
</clipPath>
</defs>
</svg>
