<svg width="68" height="38" viewBox="0 0 68 38" fill="none" xmlns="http://www.w3.org/2000/svg">
<path fill-rule="evenodd" clip-rule="evenodd" d="M4.61947 36.9363L2.44526 37.0251C1.5874 37.1434 -0.101684 37.309 0.00480771 37.38C0.1113 37.451 3.53976 37.4688 5.24067 37.4688H48.37C54.7004 37.4392 67.583 37.1138 67.8936 36.8032C66.3849 36.8032 65.4087 36.6701 64.5657 36.5813C64.9946 35.546 65.6217 32.9695 64.6988 30.9461L65.9412 31.0793L65.5862 18.4777L40.3387 3.43567C38.6082 3.67232 35.0319 4.09237 34.5704 3.87939V4.89993C35.9311 4.85556 38.7502 4.92656 39.1407 5.56551C39.5311 6.20446 39.6288 7.34038 39.6288 7.82847V9.78083L39.54 11.6001C39.3182 9.91394 39.3892 6.47069 38.7857 6.00923C38.1822 5.54776 35.9607 5.69863 34.9254 5.83174C34.7775 5.93527 34.4994 6.26658 34.5704 6.76355C34.6414 7.26051 34.6 9.48501 34.5704 10.5351H34.171L34.2154 2.90321C34.7479 2.10452 36.15 1.28808 35.1916 0.329647C34.2332 -0.628783 32.8695 0.728992 32.3074 1.52768C32.1152 1.85308 31.7306 2.82334 31.7306 4.10124L21.7913 5.29928C20.6525 5.47677 18.0552 6.57719 16.7773 9.55897L14.2925 10.0471C13.9671 10.1506 13.2631 10.7126 13.0501 12.1325L11.4971 12.31C11.0534 12.4875 11.009 12.807 11.009 13.1974V16.0372C9.32287 16.1999 5.84413 16.8182 5.41816 17.9896C4.8857 19.4539 4.97444 20.0751 4.97444 20.3413L4.66384 23.4473C3.70245 23.684 1.72643 24.5211 1.51345 25.9765V27.8845C1.24722 27.988 0.714758 28.3903 0.714758 29.1713V31.8779C0.714758 32.6471 1.24722 34.3184 2.8446 33.7416C3.0073 34.5846 3.82078 36.2264 4.61947 36.9363ZM22.1463 36.6701L10.7428 36.8032C11.5237 36.2707 11.8077 35.2798 11.8521 34.8509H21.2589C21.1169 35.7383 21.7913 36.4334 22.1463 36.6701ZM26.0066 36.6701C25.5481 36.3003 24.7199 35.2502 24.3205 34.0522C24.4684 34.8656 25.0127 36.5281 26.0066 36.6701ZM2.8446 27.7514C3.14041 27.6035 3.83853 27.352 4.2645 27.5295C4.69046 27.707 3.49539 27.7514 2.8446 27.7514ZM4.35324 27.1302L2.2234 27.2189H2.13465C2.13465 27.0414 2.1524 26.5977 2.2234 26.2427C2.29439 25.8878 3.73204 25.799 4.44198 25.799L4.35324 27.1302ZM4.44198 25.0891C4.2645 25.0181 3.1552 25.1778 2.62274 25.2666C2.83573 24.9116 3.95389 24.1573 4.66384 24.0241L4.44198 25.0891ZM5.1963 26.8196L5.90625 19.0101C6.09664 16.9158 11.4971 16.8866 14.825 16.7916C18.4487 16.688 25.9534 16.4721 26.9828 16.4366C28.0122 16.4011 28.4175 12.9904 28.4915 11.2895C28.4915 11.2007 28.7932 11.041 30.0001 11.112C31.207 11.183 31.065 11.467 30.8432 11.6001H29.2902C29.0535 12.5762 28.5625 14.7948 28.4915 15.8598C28.4205 16.9247 27.6632 17.1909 27.2934 17.1909L16.2892 17.7677C16.5732 17.8032 16.6442 18.1375 16.6442 18.3002C16.5555 20.6075 16.3869 25.4352 16.4223 26.2871C16.4578 27.139 15.5497 27.5591 15.0912 27.6626C12.6508 27.7366 7.50363 27.9111 6.43871 28.0176C5.37379 28.1241 5.16672 27.2633 5.1963 26.8196ZM13.2276 16.0372H12.6064L12.3845 12.7981L14.47 12.6206V13.0643C14.328 13.0288 13.5826 15.0315 13.2276 16.0372ZM15.9786 15.9485H15.668L16.2892 12.7981H16.6442L15.9786 15.9485ZM26.0954 15.6823C24.4093 15.7414 21.0015 15.8598 20.8595 15.8598C21.392 15.7178 23.1225 14.144 23.9212 13.3749L20.8595 13.1531C21.747 13.1531 25.2523 12.5319 26.9828 12.3544L26.0954 15.6823ZM26.9828 18.4777C25.7759 18.0517 19.9721 18.6552 17.221 19.0101C17.014 18.7439 17.789 18.1671 22.5456 17.9896C23.9655 17.9304 26.8408 17.9452 26.9828 18.4777ZM22.8119 27.2189H17.5316V26.9527C18.5226 26.9379 20.7087 26.9083 21.5251 26.9083C22.3415 26.9083 22.6048 26.6717 22.6344 26.5533C22.6936 26.4054 22.874 25.9233 23.1225 25.1778C23.371 24.4324 23.0189 24.3052 22.8119 24.3348H18.3303C19.8567 22.7729 24.4388 22.2345 26.5391 22.1605C21.9954 21.4861 18.9367 22.8853 17.9754 23.6692C20.0342 21.3618 23.507 21.1104 24.9861 21.2731C25.8587 21.4062 27.9945 22.0718 29.5564 23.6692C31.1183 25.2666 31.3017 30.6651 31.1981 33.1647C30.9497 32.9162 30.7988 30.5172 30.7544 29.3488C30.5178 27.4556 29.583 23.7224 27.7371 23.9354C25.8913 24.1484 24.7366 26.154 24.7199 27.0858C24.4536 23.3586 27.8259 23.2255 29.0239 23.9354C27.0272 22.3824 25.696 22.9149 24.4536 23.6692C23.6106 24.4235 23.2556 25.8138 22.8119 27.2189ZM18.3303 24.7341H22.6344C22.6344 25.941 22.0428 26.3611 21.747 26.4202H17.5316C17.5316 25.2133 18.0641 24.7933 18.3303 24.7341ZM28.2696 10.8901C24.0809 10.5706 16.94 11.5853 13.8932 12.1325C13.9819 11.5113 14.0438 10.7976 15.5349 10.402C17.7091 9.8252 25.496 9.32232 30.0001 9.15962L31.5531 10.0471C31.3165 9.9731 30.6479 9.79857 29.867 9.69208C29.086 9.58559 28.4767 10.4464 28.2696 10.8901ZM28.4915 8.49405C27.6395 8.17457 21.4511 8.92297 18.4634 9.33711C18.7829 8.23669 21.318 7.34038 22.5456 7.02978C21.1967 6.92329 19.5284 7.69535 18.8628 8.0947C19.1823 7.42025 20.9483 6.51211 21.7913 6.14234L31.8193 5.07742V5.743C31.1094 5.77849 29.3049 7.59182 28.4915 8.49405ZM32.973 10.5351H32.3074V2.99195C32.3074 1.46556 33.5942 0.462762 34.5704 0.462762C34.881 0.462762 35.0411 1.11345 34.3485 1.30582C33.5498 1.52768 33.0617 2.41512 33.0617 2.90321L32.973 10.5351ZM28.5802 21.0512L28.4027 17.9896C28.1809 18.7883 28.0921 20.4744 28.0921 21.0512C28.0921 21.5393 28.5802 21.3618 28.5802 21.0512ZM28.8021 17.0134V16.6141C30.009 16.6141 30.8136 16.3774 31.065 16.2591C31.136 16.9335 29.586 17.043 28.8021 17.0134ZM39.895 12.3988L40.1612 25.0447L39.3182 12.6206L35.3691 10.9789C35.3691 10.9789 35.1916 10.9345 35.236 10.757C35.2803 10.5795 35.4578 10.6683 35.4578 10.6683L39.895 12.3988ZM27.1159 26.9527C25.838 26.9527 25.134 28.5501 24.9417 29.3488C24.891 28.1655 25.2549 25.87 27.1159 26.154C28.977 26.438 29.5183 29.0234 29.5564 30.2806C29.2754 29.1713 28.3938 26.9527 27.1159 26.9527ZM32.973 25.4884H32.4849C32.4849 26.3404 32.0116 26.4942 31.775 26.4646V26.9527C32.8399 26.9882 33.0174 25.9913 32.973 25.4884ZM41.3593 26.8639V26.4646L64.9207 29.97V30.3249C63.9977 30.3959 48.8285 28.0472 41.3593 26.8639ZM40.6049 4.94431L41.1818 24.7785L65.1425 29.0825L64.9207 19.0101L40.6049 4.94431ZM38.4751 36.4926H35.4578C36.0258 36.2086 36.4636 34.9248 36.6115 34.3184H37.632C37.5255 35.0283 38.1497 36.0637 38.4751 36.4926ZM55.1145 36.3151H50.5442C50.8637 36.3151 51.2394 34.7177 51.3873 33.919H54.4933C54.3868 35.0195 54.8631 35.9749 55.1145 36.3151ZM43.1785 28.8607C44.8203 28.8607 45.0865 35.6939 43.356 35.6939C42.9566 35.6939 41.803 34.6734 41.803 32.4548C41.803 29.4375 42.3798 28.8607 43.1785 28.8607ZM47.0832 29.0825C48.725 29.0825 48.9912 35.9158 47.2607 35.9158C46.8614 35.9158 45.7077 34.8952 45.7077 32.6766C45.7077 29.6594 46.2845 29.0825 47.0832 29.0825ZM59.7292 33.4753C59.8002 35.0017 59.1375 35.7679 58.7974 35.9601C58.0128 35.9601 57.8705 34.4615 57.7815 33.5253L57.7768 33.4753C57.6881 32.5435 58.0874 30.4137 58.6642 30.458C59.2411 30.5024 59.6404 31.5673 59.7292 33.4753ZM62.3027 33.4753C62.3737 35.0017 62.0399 35.9601 61.504 35.9601C60.7194 35.9601 60.5771 34.4615 60.4882 33.5253L60.4835 33.4753C60.3947 32.5435 60.6166 30.813 61.1491 30.813C61.7276 30.813 62.214 31.5673 62.3027 33.4753ZM64.5657 33.4753C64.6367 35.0017 64.3472 35.9601 63.8114 35.9601C63.0127 35.9601 63.057 34.4071 62.9683 33.4753C62.8796 32.5435 63.1014 31.0349 63.6339 31.0349C64.2124 31.0349 64.4769 31.5673 64.5657 33.4753ZM35.1472 26.4646L39.2294 27.2189C38.0018 27.145 35.4968 26.8196 35.1472 26.8196C34.7035 26.8196 34.7479 26.4202 35.1472 26.4646ZM33.1505 28.417C34.1089 29.3754 33.6977 31.5082 33.3724 32.4548C33.7569 32.3365 34.5438 31.7182 34.6148 30.1918C34.6858 28.6654 33.6682 28.3726 33.1505 28.417ZM35.236 28.905C35.9104 30.2539 35.2508 31.8336 34.8366 32.4548C35.5466 32.3838 35.872 31.4194 35.9459 30.9461H38.3864C38.5993 29.8812 37.9131 29.26 37.5433 29.0825L35.236 28.905ZM38.6526 29.2156C39.469 30.3161 38.9928 32.0702 38.6526 32.8098C39.0786 32.6323 39.3921 31.5821 39.4956 31.0793C39.614 31.094 39.8595 31.1148 39.895 31.0793C39.895 29.3399 39.0667 29.1121 38.6526 29.2156ZM33.0617 16.5697H31.9968V25.1334C32.3074 24.9116 33.2392 24.8672 34.1267 25.1334C34.8366 25.3464 34.9845 24.7785 34.9697 24.4679C34.881 20.5336 34.7035 12.4964 34.7035 11.8219C34.7035 11.1475 33.9048 10.9789 33.5055 10.9789C32.3518 10.9789 31.8193 11.2895 31.8193 11.7332V15.8598H32.9286V11.4226C33.8516 11.2451 34.2894 11.6149 34.3929 11.8219V24.4679H33.0617V16.5697ZM37.5877 13.508V20.2082C37.4102 19.8976 37.1439 14.4842 37.1883 13.5968C37.2238 12.8868 36.0347 13.0643 36.0347 12.6206C36.0347 11.9782 37.5877 13.1087 37.5877 13.508ZM28.669 31.7448C28.8494 34.0909 28.0034 35.2502 27.1603 35.2502C26.5391 35.2502 25.696 35.2058 25.5186 31.7448C25.4048 29.5262 26.4947 28.4613 27.1159 28.4613C27.9146 28.5501 28.4915 29.4375 28.669 31.7448ZM23.4331 31.7892L23.1668 32.4104C23.3443 32.4104 23.7437 31.9963 23.9212 31.7892C23.9803 31.1384 24.1075 29.686 24.143 29.0825C24.1785 28.4791 23.9212 28.3578 23.7881 28.3726C16.7625 28.4761 2.57837 28.6832 2.04591 28.6832C1.51344 28.6832 1.38033 29.0677 1.38033 29.26C1.36554 29.615 1.34483 30.529 1.38033 31.3455C1.41583 32.1619 1.83884 32.3069 2.04591 32.2773H21.1258C21.6937 32.2773 21.8061 31.9519 21.7913 31.7892L22.0132 29.0825H23.4331V31.7892ZM23.1668 29.6594H22.6344C22.6788 29.7333 22.803 29.8812 22.945 29.8812C23.087 29.8812 23.1521 29.7333 23.1668 29.6594Z" fill="#232323" fill-opacity="0.8"/>
<path fill-rule="evenodd" clip-rule="evenodd" d="M6.08374 26.2427C6.08374 26.0298 6.43871 21.7464 6.6162 19.6313C6.6162 19.3355 6.91793 18.7439 8.12484 18.7439C9.33175 18.7439 13.0945 18.5664 14.825 18.4777C15.106 18.3889 15.668 18.4244 15.668 19.2764C15.668 20.1283 15.4905 24.0981 15.4018 25.9765C15.4018 26.3019 15.1888 26.9527 14.3369 26.9527C13.4849 26.9527 8.92353 27.1302 6.74931 27.2189C6.50412 27.2189 6.02775 27.0237 6.08374 26.2427ZM7.05992 20.4744C9.73701 20.43 15.0912 20.2969 15.0912 20.1194C15.0912 19.8976 7.37052 20.2082 7.05992 20.4744ZM7.05992 22.2493C9.33766 22.0126 14.1328 21.6103 15.0912 21.8943C14.8427 22.1428 9.63348 22.2345 7.05992 22.2493ZM6.74931 24.0241C9.35246 24.0389 14.612 24.0064 14.825 23.7579C15.0912 23.4473 7.05992 23.7579 6.74931 24.0241ZM14.825 25.6215L6.74931 25.799C9.01227 25.2222 14.0085 25.0979 14.825 25.4884V25.6215Z" fill="#232323" fill-opacity="0.8"/>
<path fill-rule="evenodd" clip-rule="evenodd" d="M19.7502 31.3899C13.9523 31.6413 2.29439 32.0909 2.04591 31.8779C1.79743 31.665 1.82405 31.2863 1.86842 31.1236V29.7037C1.86842 29.4375 1.77968 29.3931 2.71149 29.3931C3.70541 29.3931 8.184 29.5115 10.2991 29.5706H4.61947V31.2124L19.7502 31.3899ZM4.17575 29.97H2.534V30.2806H4.17575V29.97Z" fill="#232323" fill-opacity="0.8"/>
<path fill-rule="evenodd" clip-rule="evenodd" d="M17.7535 29.97C17.7535 29.7037 17.8689 29.1713 18.8628 29.1713H20.8152C21.0074 29.2009 21.3654 29.4109 21.2589 30.0143C21.1524 30.6178 20.7116 30.7391 20.5045 30.7243H18.2416C18.0641 30.7243 17.7535 30.3604 17.7535 29.97ZM19.0403 29.6594H20.5045V30.0143C20.0165 29.97 19.1734 30.0143 19.0403 30.0143C19.0403 30.1208 18.8332 30.177 18.7297 30.1918C18.6409 30.1918 18.4634 30.1297 18.4634 29.8812C18.4634 29.6327 18.848 29.6298 19.0403 29.6594Z" fill="#232323" fill-opacity="0.8"/>
<path d="M26.2285 31.7892C26.332 32.9133 26.8497 34.8242 28.0921 33.4753C27.9442 33.9782 27.4887 34.8863 26.8497 34.4959C26.2108 34.1054 25.9623 32.5435 26.2285 31.7892Z" fill="#232323" fill-opacity="0.8"/>
<path d="M26.7166 31.9667C26.7162 32.4252 26.8488 33.3688 27.3822 33.4753C27.9155 33.5818 28.1368 32.4548 28.1809 31.8779C28.2252 31.4194 28.1542 30.4669 27.5153 30.3249C26.8763 30.1829 26.7166 31.3603 26.7166 31.9667Z" fill="#232323" fill-opacity="0.8"/>
<path d="M26.406 29.7481C26.7854 29.5146 27.6429 29.2322 28.0749 29.9407C27.2317 28.524 26.6117 29.2192 26.406 29.7481Z" fill="#232323" fill-opacity="0.8"/>
<path d="M43.4891 31.1236C43.711 32.0111 43.9861 33.9634 43.3116 34.6734C43.4152 34.7177 43.6488 34.7532 43.7553 34.5402C43.7553 34.7325 43.64 35.055 43.1785 34.8065C42.717 34.558 42.5721 33.076 42.5573 32.366C42.5277 31.5526 42.646 29.9256 43.356 29.9256C44.0659 29.9256 44.273 31.9667 44.2878 32.9872C44.1399 32.366 43.7683 31.1334 43.5779 30.9905C43.4004 30.8574 43.4447 30.9461 43.4891 31.1236Z" fill="#232323" fill-opacity="0.8"/>
<path d="M47.3938 31.3455C47.6157 32.2329 47.8908 34.1853 47.2163 34.8952C47.3199 34.9396 47.5536 34.9751 47.66 34.7621C47.66 34.9544 47.5447 35.2768 47.0832 35.0283C46.6217 34.7799 46.4768 33.2978 46.462 32.5879C46.4324 31.7744 46.5508 30.1474 47.2607 30.1474C47.9706 30.1474 48.1777 32.1885 48.1925 33.2091C48.0446 32.5879 47.6731 31.3552 47.4826 31.2124C47.3051 31.0793 47.3494 31.168 47.3938 31.3455Z" fill="#232323" fill-opacity="0.8"/>
<path d="M58.7974 35.1615C59.0636 34.5402 59.1878 33.0405 58.9748 32.366C59.1375 32.4844 59.4541 32.9961 59.4186 33.7416C59.4925 32.9577 59.5162 31.381 58.8417 31.3455C58.5755 31.3455 58.2294 31.8247 58.2649 33.2091C58.3004 34.5935 58.4867 35.5164 58.7974 35.5164C58.9748 35.5164 59.037 35.3123 59.108 35.0283C59.0488 35.0875 58.9038 35.1969 58.7974 35.1615Z" fill="#232323" fill-opacity="0.8"/>
<path d="M61.4597 35.0727C61.7259 34.4515 61.7614 33.218 61.5484 32.5435C61.7111 32.6618 62.0276 33.1736 61.9921 33.919C62.0661 33.1351 62.1785 31.6916 61.504 31.6561C61.2378 31.6561 60.9361 31.8247 60.9716 33.2091C61.0071 34.5935 61.1491 35.3833 61.4597 35.3833C61.6371 35.3833 61.6993 35.2236 61.7703 34.9396C61.7111 34.9988 61.5662 35.1082 61.4597 35.0727Z" fill="#232323" fill-opacity="0.8"/>
<path d="M63.8114 35.0727C64.0776 34.4515 64.0687 33.218 63.8557 32.5435C64.0184 32.6618 64.3349 33.1736 64.2994 33.919C64.3375 33.1204 64.4858 31.8691 63.8114 31.8336C63.5451 31.8336 63.3765 32.0909 63.412 33.4753C63.4475 34.8597 63.5008 35.2946 63.8114 35.2946C63.9888 35.2946 64.0066 35.2236 64.0776 34.9396C64.0184 34.9988 63.9179 35.1082 63.8114 35.0727Z" fill="#232323" fill-opacity="0.8"/>
</svg>
