<svg width="14" height="14" viewBox="0 0 14 14" fill="none" xmlns="http://www.w3.org/2000/svg">
<g clip-path="url(#clip0_1046_2086)">
<path d="M6.99998 0.0247803C5.45645 0.0264784 3.97661 0.640358 2.88511 1.73175C1.79361 2.82314 1.17959 4.30291 1.17773 5.84645C1.17773 7.34561 2.33857 9.69178 4.62815 12.8196C4.90072 13.193 5.2576 13.4968 5.66975 13.7062C6.0819 13.9157 6.53768 14.0248 6.99998 14.0248C7.46229 14.0248 7.91807 13.9157 8.33022 13.7062C8.74237 13.4968 9.09925 13.193 9.37182 12.8196C11.6614 9.69178 12.8222 7.34561 12.8222 5.84645C12.8204 4.30291 12.2064 2.82314 11.1149 1.73175C10.0234 0.640358 8.54352 0.0264784 6.99998 0.0247803ZM6.99998 8.16695C6.5385 8.16695 6.08737 8.0301 5.70365 7.77371C5.31994 7.51732 5.02087 7.1529 4.84427 6.72654C4.66766 6.30018 4.62145 5.83103 4.71149 5.3784C4.80152 4.92578 5.02375 4.51002 5.35007 4.1837C5.67639 3.85738 6.09215 3.63515 6.54477 3.54512C6.9974 3.45508 7.46655 3.50129 7.89291 3.6779C8.31927 3.8545 8.68369 4.15357 8.94008 4.53728C9.19647 4.921 9.33332 5.37212 9.33332 5.83361C9.33332 6.45245 9.08749 7.04595 8.6499 7.48353C8.21232 7.92112 7.61882 8.16695 6.99998 8.16695Z" fill="#EF4444"/>
</g>
<defs>
<clipPath id="clip0_1046_2086">
<rect width="14" height="14" fill="white"/>
</clipPath>
</defs>
</svg>
