<svg width="19" height="20" viewBox="0 0 19 20" fill="none" xmlns="http://www.w3.org/2000/svg">
<g clip-path="url(#clip0_871_813)">
<path d="M18.0625 17.8428L13.5146 13.295C14.754 11.7792 15.3633 9.84514 15.2166 7.89273C15.0699 5.94033 14.1784 4.119 12.7265 2.80546C11.2746 1.49193 9.37338 0.7867 7.41608 0.835639C5.45879 0.884577 3.59518 1.68394 2.21073 3.06839C0.826277 4.45284 0.0269112 6.31645 -0.0220273 8.27375C-0.0709658 10.231 0.634267 12.1323 1.9478 13.5842C3.26133 15.0361 5.08266 15.9276 7.03507 16.0743C8.98747 16.221 10.9216 15.6116 12.4373 14.3723L16.9851 18.9201C17.1288 19.0589 17.3213 19.1357 17.521 19.134C17.7208 19.1322 17.9119 19.0521 18.0532 18.9108C18.1944 18.7696 18.2746 18.5785 18.2763 18.3787C18.278 18.1789 18.2012 17.9865 18.0625 17.8428ZM7.61902 14.5719C6.4135 14.5719 5.23504 14.2144 4.23269 13.5447C3.23033 12.8749 2.44909 11.923 1.98776 10.8092C1.52642 9.69547 1.40571 8.46993 1.6409 7.28757C1.87609 6.1052 2.4566 5.01914 3.30904 4.1667C4.16147 3.31427 5.24754 2.73375 6.4299 2.49857C7.61226 2.26338 8.83781 2.38409 9.95157 2.84542C11.0653 3.30676 12.0173 4.088 12.687 5.09035C13.3568 6.09271 13.7143 7.27116 13.7143 8.47669C13.7124 10.0927 13.0697 11.642 11.927 12.7847C10.7843 13.9274 9.23502 14.5701 7.61902 14.5719Z" fill="#727272"/>
</g>
<defs>
<clipPath id="clip0_871_813">
<rect width="18.2857" height="18.2857" fill="white" transform="translate(0 0.857178)"/>
</clipPath>
</defs>
</svg>
