<svg width="24" height="24" viewBox="0 0 24 24" fill="none" xmlns="http://www.w3.org/2000/svg">
<g clip-path="url(#clip0_873_2567)">
<path d="M1.32719 12.4003L4.88719 15.0003L3.53519 19.1873C3.3167 19.8367 3.31394 20.5393 3.5273 21.1904C3.74067 21.8415 4.15874 22.4062 4.71919 22.8003C5.27005 23.2071 5.93759 23.425 6.62235 23.4216C7.30711 23.4182 7.97244 23.1936 8.51919 22.7813L12.0002 20.2193L15.4822 22.7783C16.032 23.1828 16.696 23.4025 17.3786 23.4058C18.0611 23.4091 18.7272 23.1959 19.281 22.7968C19.8347 22.3978 20.2477 21.8334 20.4605 21.1848C20.6733 20.5362 20.6749 19.8369 20.4652 19.1873L19.1132 15.0003L22.6732 12.4003C23.2223 11.9988 23.6306 11.4341 23.8395 10.7867C24.0485 10.1394 24.0476 9.44251 23.8369 8.79571C23.6262 8.14891 23.2164 7.58525 22.6662 7.18523C22.116 6.7852 21.4535 6.56929 20.7732 6.56832H16.4002L15.0732 2.43232C14.8645 1.78128 14.4545 1.21333 13.9022 0.810386C13.3499 0.407437 12.6839 0.190308 12.0002 0.190308C11.3165 0.190308 10.6505 0.407437 10.0982 0.810386C9.54593 1.21333 9.13587 1.78128 8.92719 2.43232L7.60019 6.56832H3.23119C2.55094 6.56929 1.88838 6.7852 1.33817 7.18523C0.787961 7.58525 0.378234 8.14891 0.167514 8.79571C-0.043205 9.44251 -0.0441377 10.1394 0.16485 10.7867C0.373837 11.4341 0.782054 11.9988 1.33119 12.4003H1.32719Z" fill="#3196F8"/>
</g>
<defs>
<clipPath id="clip0_873_2567">
<rect width="24" height="24" fill="white"/>
</clipPath>
</defs>
</svg>
