<svg width="24" height="24" viewBox="0 0 24 24" fill="none" xmlns="http://www.w3.org/2000/svg">
<g clip-path="url(#clip0_1024_1825)">
<path d="M2.31026 17.192L7.81026 22.692C7.04123 23.0052 6.19689 23.0845 5.38297 22.9201C4.56906 22.7557 3.82173 22.3548 3.23458 21.7676C2.64743 21.1805 2.24655 20.4332 2.08213 19.6192C1.91771 18.8053 1.99706 17.961 2.31026 17.192ZM7.32726 1.97996C7.58717 1.92692 7.81536 1.7728 7.96164 1.5515C8.10792 1.33021 8.1603 1.05987 8.10726 0.79996C8.05421 0.540048 7.90009 0.311852 7.6788 0.165574C7.45751 0.0192954 7.18717 -0.0330835 6.92726 0.0199598C4.2456 0.489755 1.84427 1.96511 0.213255 4.14496C0.0652335 4.35854 0.0061636 4.62135 0.0485574 4.87773C0.0909512 5.1341 0.231479 5.36391 0.440375 5.51847C0.649271 5.67303 0.910129 5.7402 1.16769 5.70576C1.42526 5.67132 1.65931 5.53797 1.82026 5.33396C3.15441 3.54729 5.12759 2.34553 7.32726 1.97996ZM23.2003 16.023C22.9413 15.9661 22.6703 16.0145 22.447 16.1574C22.2236 16.3003 22.0662 16.526 22.0093 16.785C21.6293 18.9427 20.4436 20.8755 18.6923 22.192C18.478 22.3484 18.3346 22.5836 18.2937 22.8458C18.2528 23.108 18.3178 23.3757 18.4743 23.59C18.6307 23.8043 18.8659 23.9476 19.1281 23.9885C19.3903 24.0294 19.658 23.9644 19.8723 23.808C22.0124 22.1994 23.4718 19.8469 23.9623 17.215C23.9905 17.0867 23.9933 16.954 23.9703 16.8247C23.9473 16.6953 23.899 16.5718 23.8283 16.4611C23.7575 16.3504 23.6656 16.2547 23.5578 16.1795C23.4501 16.1044 23.3286 16.0512 23.2003 16.023ZM20.1673 5.24696L21.7073 3.70696C21.8028 3.61471 21.8789 3.50437 21.9314 3.38236C21.9838 3.26036 22.0114 3.12914 22.0125 2.99636C22.0137 2.86358 21.9884 2.7319 21.9381 2.60901C21.8878 2.48611 21.8135 2.37446 21.7197 2.28057C21.6258 2.18667 21.5141 2.11242 21.3912 2.06214C21.2683 2.01186 21.1366 1.98656 21.0039 1.98771C20.8711 1.98886 20.7399 2.01645 20.6179 2.06886C20.4958 2.12127 20.3855 2.19745 20.2933 2.29296L18.7513 3.83496C17.3706 2.73787 15.6816 2.09986 13.9204 2.01021C12.1593 1.92055 10.4141 2.38374 8.92926 3.33496L3.42926 6.73496C2.78431 7.13355 2.23789 7.67288 1.83092 8.31258C1.42396 8.95227 1.16699 9.67575 1.07927 10.4288C0.991539 11.1819 1.07533 11.9451 1.32435 12.6612C1.57338 13.3773 1.98119 14.0278 2.51726 14.564L9.47626 21.523C10.0134 22.0603 10.6654 22.4688 11.3831 22.7179C12.1009 22.9669 12.8658 23.05 13.6203 22.9609C14.3748 22.8717 15.0993 22.6127 15.7393 22.2033C16.3793 21.7938 16.9181 21.2446 17.3153 20.597L20.9153 14.721C21.7427 13.2452 22.1134 11.557 21.9802 9.87035C21.847 8.1837 21.2161 6.57457 20.1673 5.24696Z" fill="#EAB308"/>
</g>
<defs>
<clipPath id="clip0_1024_1825">
<rect width="24" height="24" fill="white"/>
</clipPath>
</defs>
</svg>
