<svg width="14" height="14" viewBox="0 0 14 14" fill="none" xmlns="http://www.w3.org/2000/svg">
<path d="M7.00032 12.2499C4.74621 12.2474 2.91956 10.4207 2.91699 8.1666V2.91661C2.91699 2.79994 2.92457 2.68329 2.93449 2.57129C1.86349 3.03137 1.16874 4.0843 1.16699 5.24993V11.0832C1.16891 12.6933 2.47361 13.998 4.08364 13.9999H7.58364C8.74928 13.9982 9.8022 13.3034 10.2623 12.2324C10.1456 12.2423 10.0336 12.2499 9.91699 12.2499H7.00032Z" fill="#3196F8"/>
<path d="M12.3404 1.90872L11.0081 0.53265C10.8614 0.384092 10.6893 0.262986 10.5 0.175049V2.33337H12.635C12.5585 2.17798 12.4592 2.03483 12.3404 1.90872Z" fill="#3196F8"/>
<path d="M9.91699 2.33327C9.91699 2.65544 10.1782 2.9166 10.5003 2.9166H12.8138C12.7709 2.53783 12.6046 2.18365 12.3407 1.9086L11.0084 0.532521C10.717 0.2371 10.3303 0.054416 9.91699 0.0168457V2.33327Z" fill="#3196F8"/>
<path d="M8.75066 2.33332V0H7.00066C5.39063 0.00194141 4.08593 1.30665 4.08398 2.91668V8.16668C4.08593 9.7767 5.39063 11.0814 7.00066 11.0834H9.91734C11.5274 11.0814 12.8321 9.7767 12.834 8.16668V4.08332H10.5007C9.53417 4.08332 8.75066 3.29984 8.75066 2.33332Z" fill="#3196F8"/>
</svg>
