<svg width="128" height="20" viewBox="0 0 128 20" fill="none" xmlns="http://www.w3.org/2000/svg">
<path d="M0.816667 4.65V1.5H12.9889V4.65H8.71111V19H5.09444V4.65H0.816667ZM15.6753 19V1.5H25.0086V4.53333H19.0586V7.21667H23.6475V10.1333H19.0586V15.85H25.0086V19H15.6753ZM27.9253 19V0.916666L36.2475 11.2611L44.4141 0.916666V19H41.0308V13.9833C41.0308 13.413 41.0373 12.7713 41.0503 12.0583C41.0762 11.3454 41.141 10.5287 41.2447 9.60833C40.8429 10.2824 40.454 10.8657 40.078 11.3583C39.7151 11.8509 39.378 12.3046 39.0669 12.7194L36.1891 16.5694L33.2141 12.7194C32.916 12.3306 32.5595 11.8639 32.1447 11.3194C31.7429 10.762 31.354 10.1722 30.978 9.55C31.0817 10.4963 31.1401 11.3259 31.153 12.0389C31.179 12.7519 31.1919 13.4 31.1919 13.9833V19H27.9253ZM56.5985 19.35C55.3152 19.35 54.1161 19.1167 53.0013 18.65C51.8865 18.1704 50.9013 17.5157 50.0457 16.6861C49.2032 15.8565 48.542 14.8907 48.0624 13.7889C47.5828 12.687 47.343 11.5074 47.343 10.25C47.343 8.99259 47.5828 7.81296 48.0624 6.71111C48.542 5.60926 49.2032 4.64352 50.0457 3.81389C50.9013 2.98426 51.8865 2.33611 53.0013 1.86944C54.1161 1.38982 55.3152 1.15 56.5985 1.15C57.7522 1.15 58.8411 1.33796 59.8652 1.71389C60.8893 2.08981 61.8032 2.6213 62.6069 3.30833L61.6152 7.39167C61.1356 6.58796 60.4745 5.91389 59.6319 5.36944C58.7893 4.81204 57.817 4.53333 56.7152 4.53333C55.6652 4.53333 54.7124 4.79259 53.8569 5.31111C53.0143 5.81667 52.3467 6.5037 51.8541 7.37222C51.3615 8.22778 51.1152 9.18704 51.1152 10.25C51.1152 11.3 51.3615 12.2593 51.8541 13.1278C52.3467 13.9963 53.0143 14.6898 53.8569 15.2083C54.7124 15.7139 55.6652 15.9667 56.7152 15.9667C57.8041 15.9667 58.7698 15.6944 59.6124 15.15C60.468 14.5926 61.1356 13.912 61.6152 13.1083L62.6069 17.1917C61.7902 17.8657 60.8698 18.3972 59.8457 18.7861C58.8346 19.162 57.7522 19.35 56.5985 19.35ZM63.4521 19L71.1715 0.877778H71.2104L78.9299 19H75.4104L74.1076 15.8889H68.1576L66.8549 19H63.4521ZM69.3243 13.0889H72.941L72.1826 11.3C71.9752 10.8204 71.7808 10.3602 71.5993 9.91944C71.4308 9.46574 71.2688 8.94074 71.1132 8.34444C70.9706 8.92778 70.815 9.4463 70.6465 9.9C70.478 10.3537 70.29 10.8204 70.0826 11.3L69.3243 13.0889ZM81.0852 19V1.5H86.4324C87.7027 1.5 88.7852 1.75278 89.6796 2.25833C90.587 2.76389 91.2805 3.43796 91.7602 4.28056C92.2398 5.11018 92.4796 6.02407 92.4796 7.02222C92.4796 7.92963 92.2787 8.75278 91.8768 9.49167C91.4879 10.2306 90.9305 10.8398 90.2046 11.3194L94.8324 19H91.0018L87.1129 12.35H84.4685V19H81.0852ZM84.4685 9.43333H86.3546C86.9898 9.43333 87.5083 9.31667 87.9102 9.08333C88.312 8.83704 88.6102 8.53241 88.8046 8.16944C88.999 7.79352 89.0963 7.41111 89.0963 7.02222C89.0963 6.33518 88.8435 5.7713 88.3379 5.33055C87.8324 4.87685 87.1713 4.65 86.3546 4.65H84.4685V9.43333ZM104.645 19.35C103.322 19.35 102.084 19.1296 100.931 18.6889C99.7899 18.2352 98.7853 17.6 97.9168 16.7833C97.0612 15.9667 96.3936 15.0074 95.914 13.9056C95.4343 12.8037 95.1945 11.5981 95.1945 10.2889C95.1945 8.97963 95.4343 7.77407 95.914 6.67222C96.3936 5.55741 97.0612 4.59167 97.9168 3.775C98.7853 2.94537 99.7834 2.3037 100.911 1.85C102.052 1.38333 103.283 1.15 104.606 1.15C105.798 1.15 106.913 1.33796 107.95 1.71389C108.987 2.08981 109.907 2.6213 110.711 3.30833L109.72 7.31389C109.227 6.51019 108.546 5.83611 107.678 5.29167C106.822 4.73426 105.798 4.45555 104.606 4.45555C103.504 4.45555 102.519 4.70833 101.65 5.21389C100.782 5.71944 100.095 6.41296 99.589 7.29444C99.0964 8.17593 98.8501 9.17407 98.8501 10.2889C98.8501 11.4296 99.0964 12.4407 99.589 13.3222C100.095 14.1907 100.782 14.8778 101.65 15.3833C102.519 15.8759 103.497 16.1222 104.586 16.1222C105.118 16.1222 105.61 16.0704 106.064 15.9667C106.518 15.863 106.926 15.7074 107.289 15.5V12.1167H103.731V9.2H110.478V17.6972C109.674 18.2157 108.773 18.6241 107.775 18.9222C106.79 19.2074 105.746 19.35 104.645 19.35ZM112.261 19L119.98 0.877778H120.019L127.738 19H124.219L122.916 15.8889H116.966L115.663 19H112.261ZM118.133 13.0889H121.75L120.991 11.3C120.784 10.8204 120.589 10.3602 120.408 9.91944C120.239 9.46574 120.077 8.94074 119.922 8.34444C119.779 8.92778 119.624 9.4463 119.455 9.9C119.287 10.3537 119.099 10.8204 118.891 11.3L118.133 13.0889Z" fill="#0A70D3"/>
</svg>
