<svg width="24" height="24" viewBox="0 0 24 24" fill="none" xmlns="http://www.w3.org/2000/svg">
<g clip-path="url(#clip0_1053_1855)">
<path d="M18.5551 7.5577C18.3851 7.50617 18.2303 7.41364 18.1044 7.28826C17.9785 7.16288 17.8854 7.00848 17.8331 6.83865C17.5387 5.84084 17.0449 4.91314 16.3816 4.11168C15.7183 3.31023 14.8993 2.65168 13.9742 2.17589C13.049 1.7001 12.0369 1.41696 10.9992 1.3436C9.96145 1.27025 8.91961 1.4082 7.93672 1.74912C6.95383 2.09003 6.05033 2.62682 5.28088 3.327C4.51144 4.02718 3.89205 4.87619 3.4602 5.82266C3.02836 6.76913 2.79302 7.79338 2.76845 8.83342C2.74388 9.87346 2.93057 10.9077 3.31724 11.8735C3.40575 12.077 3.42443 12.3042 3.37036 12.5194C3.31628 12.7347 3.1925 12.9261 3.0183 13.0636C2.25284 13.6318 1.65522 14.3963 1.28869 15.2763C0.922165 16.1563 0.800369 17.119 0.936195 18.0626C1.14816 19.3381 1.81041 20.4954 2.80277 21.3244C3.79513 22.1534 5.05182 22.5991 6.34473 22.5807L14.3401 22.5805L14.3399 15.2878L13.0969 16.5309C12.9156 16.706 12.6728 16.8029 12.4207 16.8007C12.1687 16.7985 11.9276 16.6974 11.7493 16.5192C11.5711 16.341 11.47 16.0998 11.4678 15.8478C11.4656 15.5957 11.5625 15.3529 11.7376 15.1716L13.2622 13.6469C13.803 13.1062 14.5364 12.8025 15.3012 12.8024C16.0659 12.8024 16.7993 13.1061 17.3402 13.6468L18.8649 15.1714C18.9567 15.2601 19.0299 15.3662 19.0803 15.4834C19.1307 15.6007 19.1572 15.7269 19.1583 15.8545C19.1594 15.9822 19.1351 16.1087 19.0868 16.2269C19.0385 16.345 18.9671 16.4524 18.8768 16.5426C18.7866 16.6329 18.6792 16.7043 18.5611 16.7526C18.4429 16.801 18.3164 16.8253 18.1887 16.8242C18.0611 16.8231 17.9349 16.7966 17.8176 16.7462C17.7003 16.6958 17.5943 16.6226 17.5056 16.5308L16.2626 15.2878L16.2627 22.5679C18.1762 22.5296 20.0101 21.7949 21.4206 20.5014C22.8312 19.2079 23.7217 17.4444 23.9253 15.5414C24.078 13.7972 23.6283 12.0533 22.6511 10.6005C21.6739 9.14774 20.2282 8.07378 18.5551 7.5577V7.5577Z" fill="#3196F8"/>
</g>
<defs>
<clipPath id="clip0_1053_1855">
<rect width="23.0718" height="23.0718" fill="white" transform="translate(0.880859 0.470215)"/>
</clipPath>
</defs>
</svg>
