<svg width="24" height="24" viewBox="0 0 24 24" fill="none" xmlns="http://www.w3.org/2000/svg">
<g clip-path="url(#clip0_873_2287)">
<path d="M14.762 11.5869C14.2154 11.8981 13.6194 12.1132 13 12.2229V23.8739C13.527 23.7713 14.0337 23.5832 14.5 23.3169L20.527 19.8379C21.2861 19.3978 21.9165 18.7662 22.3552 18.0062C22.7939 17.2462 23.0255 16.3844 23.027 15.5069V8.54693C23.0238 8.01274 22.9343 7.48257 22.762 6.97693L14.762 11.5869Z" fill="#3196f8"/>
<path d="M10.2415 9.8569C10.7771 10.165 11.3841 10.3271 12.002 10.3271C12.6198 10.3271 13.2269 10.165 13.7625 9.8569L21.7625 5.2469C21.4081 4.83978 20.99 4.49293 20.5245 4.2199L14.4995 0.736897C13.7389 0.299519 12.8768 0.0693359 11.9995 0.0693359C11.1221 0.0693359 10.2601 0.299519 9.49946 0.736897L3.47246 4.2169C3.02351 4.47979 2.61859 4.81149 2.27246 5.1999L10.2415 9.8569Z" fill="#3196f8"/>
<path d="M10.9997 12.2232C10.3799 12.1138 9.78355 11.8986 9.23666 11.5872L1.25666 6.92322C1.07198 7.4449 0.975988 7.99382 0.972656 8.54722V15.5072C0.974119 16.3847 1.20576 17.2465 1.64445 18.0065C2.08314 18.7665 2.71352 19.3981 3.47266 19.8382L9.49966 23.3172C9.96593 23.5835 10.4726 23.7716 10.9997 23.8742V12.2232Z" fill="#3196f8"/>
</g>
<defs>
<clipPath id="clip0_873_2287">
<rect width="24" height="24" fill="white"/>
</clipPath>
</defs>
</svg>
