<svg width="24" height="24" viewBox="0 0 24 24" fill="none" xmlns="http://www.w3.org/2000/svg">
<path d="M11.9995 15.9985C14.2078 15.9985 15.998 14.2083 15.998 12C15.998 9.79165 14.2078 8.00146 11.9995 8.00146C9.79116 8.00146 8.00098 9.79165 8.00098 12C8.00098 14.2083 9.79116 15.9985 11.9995 15.9985Z" fill="#3196f8"/>
<path d="M23.2668 9.42008C21.7164 6.89501 18.1897 2.65857 12 2.65857C5.81027 2.65857 2.28358 6.89501 0.733158 9.42008C-0.244386 11.0012 -0.244386 12.999 0.733158 14.5802C2.28358 17.1052 5.81027 21.3417 12 21.3417C18.1897 21.3417 21.7164 17.1052 23.2668 14.5802C24.2443 12.999 24.2443 11.0012 23.2668 9.42008ZM12 17.9979C8.68752 17.9979 6.0022 15.3126 6.0022 12.0001C6.0022 8.68764 8.68752 6.00233 12 6.00233C15.3124 6.00233 17.9978 8.68764 17.9978 12.0001C17.9944 15.3112 15.3111 17.9945 12 17.9979Z" fill="#3196f8"/>
</svg>
