<svg width="19" height="19" viewBox="0 0 19 19" fill="none" xmlns="http://www.w3.org/2000/svg">
<path d="M14.2498 9.50003C14.246 9.08353 14.0782 8.68532 13.7828 8.3917L10.3865 4.98754C10.2382 4.84009 10.0375 4.75732 9.82838 4.75732C9.61923 4.75732 9.41858 4.84009 9.27025 4.98754C9.19605 5.06113 9.13716 5.14869 9.09697 5.24516C9.05677 5.34163 9.03608 5.44511 9.03608 5.54962C9.03608 5.65413 9.05677 5.7576 9.09697 5.85407C9.13716 5.95055 9.19605 6.0381 9.27025 6.1117L11.8748 8.70836H3.95817C3.74821 8.70836 3.54684 8.79177 3.39838 8.94024C3.24991 9.0887 3.1665 9.29007 3.1665 9.50003C3.1665 9.70999 3.24991 9.91136 3.39838 10.0598C3.54684 10.2083 3.74821 10.2917 3.95817 10.2917H11.8748L9.27025 12.8963C9.12118 13.0443 9.03701 13.2455 9.03627 13.4556C9.03553 13.6656 9.11827 13.8674 9.2663 14.0165C9.41432 14.1656 9.6155 14.2497 9.82558 14.2505C10.0357 14.2512 10.2374 14.1685 10.3865 14.0204L13.7828 10.6163C14.0801 10.3207 14.2481 9.91928 14.2498 9.50003Z" fill="#0785FF"/>
</svg>
