<svg width="24" height="24" viewBox="0 0 24 24" fill="none" xmlns="http://www.w3.org/2000/svg">
<g clip-path="url(#clip0_575_667)">
<path d="M23.2706 9.41891C21.7196 6.89291 18.1916 2.65491 11.9996 2.65491C5.80756 2.65491 2.27956 6.89291 0.728563 9.41891C0.249091 10.1944 -0.00488281 11.0881 -0.00488281 11.9999C-0.00488281 12.9117 0.249091 13.8054 0.728563 14.5809C2.27956 17.1069 5.80756 21.3449 11.9996 21.3449C18.1916 21.3449 21.7196 17.1069 23.2706 14.5809C23.75 13.8054 24.004 12.9117 24.004 11.9999C24.004 11.0881 23.75 10.1944 23.2706 9.41891ZM21.5656 13.5339C20.2336 15.6999 17.2186 19.3449 11.9996 19.3449C6.78056 19.3449 3.76556 15.6999 2.43356 13.5339C2.1487 13.073 1.99781 12.5418 1.99781 11.9999C1.99781 11.458 2.1487 10.9269 2.43356 10.4659C3.76556 8.29991 6.78056 4.65491 11.9996 4.65491C17.2186 4.65491 20.2336 8.29591 21.5656 10.4659C21.8504 10.9269 22.0013 11.458 22.0013 11.9999C22.0013 12.5418 21.8504 13.073 21.5656 13.5339Z" fill="#A7A7A7"/>
<path d="M12 6.99988C11.0111 6.99988 10.0444 7.29312 9.22215 7.84253C8.39991 8.39194 7.75904 9.17283 7.3806 10.0865C7.00217 11.0001 6.90315 12.0054 7.09608 12.9753C7.289 13.9452 7.76521 14.8362 8.46447 15.5354C9.16373 16.2347 10.0546 16.7109 11.0246 16.9038C11.9945 17.0967 12.9998 16.9977 13.9134 16.6193C14.827 16.2408 15.6079 15.6 16.1574 14.7777C16.7068 13.9555 17 12.9888 17 11.9999C16.9984 10.6743 16.4711 9.40344 15.5338 8.4661C14.5964 7.52876 13.3256 7.00147 12 6.99988ZM12 14.9999C11.4067 14.9999 10.8266 14.8239 10.3333 14.4943C9.83994 14.1646 9.45543 13.6961 9.22836 13.1479C9.0013 12.5998 8.94189 11.9966 9.05765 11.4146C9.1734 10.8327 9.45912 10.2981 9.87868 9.87856C10.2982 9.459 10.8328 9.17328 11.4147 9.05752C11.9967 8.94177 12.5999 9.00118 13.1481 9.22824C13.6962 9.4553 14.1648 9.83982 14.4944 10.3332C14.8241 10.8265 15 11.4065 15 11.9999C15 12.7955 14.6839 13.5586 14.1213 14.1212C13.5587 14.6838 12.7957 14.9999 12 14.9999Z" fill="#A7A7A7"/>
</g>
<defs>
<clipPath id="clip0_575_667">
<rect width="24" height="24" fill="white"/>
</clipPath>
</defs>
</svg>
