<svg width="24" height="24" viewBox="0 0 24 24" fill="none" xmlns="http://www.w3.org/2000/svg">
<g clip-path="url(#clip0_575_661)">
<path d="M23.2706 9.41885C22.3678 7.94057 21.2291 6.6201 19.8996 5.50985L22.6996 2.70985C22.8817 2.52125 22.9825 2.26864 22.9802 2.00645C22.978 1.74425 22.8728 1.49344 22.6874 1.30803C22.502 1.12262 22.2512 1.01745 21.989 1.01517C21.7268 1.0129 21.4742 1.11369 21.2856 1.29585L18.2406 4.34485C16.353 3.22367 14.195 2.63931 11.9996 2.65485C5.80856 2.65485 2.28056 6.89285 0.728563 9.41885C0.249091 10.1944 -0.00488281 11.0881 -0.00488281 11.9998C-0.00488281 12.9116 0.249091 13.8053 0.728563 14.5808C1.63132 16.0591 2.77005 17.3796 4.09956 18.4898L1.29956 21.2899C1.20405 21.3821 1.12787 21.4924 1.07546 21.6144C1.02305 21.7364 0.995466 21.8677 0.994313 22.0004C0.993159 22.1332 1.01846 22.2649 1.06874 22.3878C1.11902 22.5107 1.19328 22.6224 1.28717 22.7162C1.38106 22.8101 1.49271 22.8844 1.61561 22.9347C1.73851 22.985 1.87018 23.0103 2.00296 23.0091C2.13574 23.0079 2.26696 22.9804 2.38897 22.9279C2.51097 22.8755 2.62132 22.7994 2.71356 22.7038L5.76556 19.6518C7.65083 20.7728 9.80623 21.3582 11.9996 21.3448C18.1906 21.3448 21.7186 17.1068 23.2706 14.5808C23.75 13.8053 24.004 12.9116 24.004 11.9998C24.004 11.0881 23.75 10.1944 23.2706 9.41885ZM2.43256 13.5338C2.1477 13.0729 1.99681 12.5417 1.99681 11.9998C1.99681 11.458 2.1477 10.9268 2.43256 10.4658C3.76656 8.29985 6.78156 4.65485 11.9996 4.65485C13.6598 4.64555 15.2968 5.04569 16.7656 5.81985L14.7526 7.83285C13.7925 7.19545 12.6415 6.90984 11.4948 7.02449C10.3481 7.13914 9.27643 7.64699 8.46157 8.46185C7.6467 9.27671 7.13886 10.3484 7.02421 11.4951C6.90956 12.6418 7.19516 13.7928 7.83256 14.7528L5.52256 17.0628C4.29767 16.0726 3.2524 14.8788 2.43256 13.5338ZM14.9996 11.9998C14.9996 12.7955 14.6835 13.5586 14.1209 14.1212C13.5583 14.6838 12.7952 14.9998 11.9996 14.9998C11.5541 14.9981 11.1148 14.8956 10.7146 14.6998L14.6996 10.7148C14.8953 11.115 14.9978 11.5544 14.9996 11.9998ZM8.99956 11.9998C8.99956 11.2042 9.31563 10.4411 9.87824 9.87853C10.4409 9.31592 11.2039 8.99985 11.9996 8.99985C12.4451 9.00157 12.8844 9.10414 13.2846 9.29985L9.29956 13.2848C9.10385 12.8847 9.00129 12.4453 8.99956 11.9998ZM21.5666 13.5338C20.2326 15.6998 17.2176 19.3448 11.9996 19.3448C10.3393 19.3542 8.70233 18.954 7.23356 18.1798L9.24656 16.1668C10.2066 16.8042 11.3577 17.0899 12.5043 16.9752C13.651 16.8606 14.7227 16.3527 15.5376 15.5378C16.3524 14.723 16.8603 13.6513 16.9749 12.5046C17.0896 11.3579 16.804 10.2069 16.1666 9.24685L18.4766 6.93685C19.7015 7.92713 20.7467 9.1209 21.5666 10.4658C21.8514 10.9268 22.0023 11.458 22.0023 11.9998C22.0023 12.5417 21.8514 13.0729 21.5666 13.5338Z" fill="#A7A7A7"/>
</g>
<defs>
<clipPath id="clip0_575_661">
<rect width="24" height="24" fill="white"/>
</clipPath>
</defs>
</svg>
