<svg width="34" height="34" viewBox="0 0 34 34" fill="none" xmlns="http://www.w3.org/2000/svg">
<path d="M22.5372 19.5387L22.5302 13.4647C22.5286 12.9363 22.318 12.43 21.9444 12.0564C21.5708 11.6828 21.0645 11.4722 20.5361 11.4707L14.4621 11.4636C14.1979 11.4644 13.9447 11.5697 13.7579 11.7565C13.5711 11.9433 13.4658 12.1964 13.465 12.4606C13.4645 12.5926 13.4901 12.7234 13.5404 12.8455C13.5906 12.9676 13.6646 13.0785 13.7579 13.1718C13.8513 13.2652 13.9622 13.3391 14.0842 13.3894C14.2063 13.4396 14.3371 13.4652 14.4691 13.4647H19.1219L11.3437 21.2429C11.1562 21.4304 11.0508 21.6848 11.0508 21.95C11.0508 22.2152 11.1562 22.4695 11.3437 22.6571C11.5313 22.8446 11.7856 22.95 12.0508 22.95C12.316 22.95 12.5704 22.8446 12.7579 22.6571L20.5361 14.8789L20.5361 19.5317C20.5352 19.797 20.6397 20.0519 20.8267 20.2402C21.0136 20.4285 21.2678 20.5348 21.5331 20.5358C21.7985 20.5367 22.0534 20.4322 22.2417 20.2452C22.43 20.0582 22.5363 19.8041 22.5372 19.5387Z" fill="#3196F8"/>
</svg>
