<svg width="24" height="24" viewBox="0 0 24 24" fill="none" xmlns="http://www.w3.org/2000/svg">
<g clip-path="url(#clip0_1044_1951)">
<path d="M12.8356 0.0278035C11.1212 -0.0921554 9.40099 0.157549 7.79142 0.760021C6.18184 1.36249 4.72046 2.30367 3.50615 3.51988C2.29184 4.73608 1.35294 6.19893 0.752982 7.80945C0.153023 9.41996 -0.0939973 11.1406 0.0286368 12.8548C0.469637 19.2078 6.08164 23.9998 13.0826 23.9998H18.9996C20.3252 23.9982 21.5961 23.4709 22.5334 22.5336C23.4708 21.5962 23.9981 20.3254 23.9996 18.9998V12.3398C24.0369 9.25725 22.9067 6.2747 20.836 3.99098C18.7652 1.70725 15.9071 0.291441 12.8356 0.0278035ZM11.9996 4.9998C12.3975 4.9998 12.779 5.15784 13.0603 5.43914C13.3416 5.72045 13.4996 6.10198 13.4996 6.4998C13.4996 6.89763 13.3416 7.27916 13.0603 7.56046C12.779 7.84177 12.3975 7.9998 11.9996 7.9998C11.6018 7.9998 11.2203 7.84177 10.939 7.56046C10.6577 7.27916 10.4996 6.89763 10.4996 6.4998C10.4996 6.10198 10.6577 5.72045 10.939 5.43914C11.2203 5.15784 11.6018 4.9998 11.9996 4.9998ZM13.9996 17.9998C13.9996 18.265 13.8943 18.5194 13.7067 18.7069C13.5192 18.8944 13.2649 18.9998 12.9996 18.9998C12.7344 18.9998 12.4801 18.8944 12.2925 18.7069C12.105 18.5194 11.9996 18.265 11.9996 17.9998V11.9998H10.9996C10.7344 11.9998 10.4801 11.8944 10.2925 11.7069C10.105 11.5194 9.99964 11.265 9.99964 10.9998C9.99964 10.7346 10.105 10.4802 10.2925 10.2927C10.4801 10.1052 10.7344 9.9998 10.9996 9.9998H11.9996C12.5301 9.9998 13.0388 10.2105 13.4139 10.5856C13.7889 10.9607 13.9996 11.4694 13.9996 11.9998V17.9998Z" fill="#3196F8"/>
</g>
<defs>
<clipPath id="clip0_1044_1951">
<rect width="24" height="24" fill="white"/>
</clipPath>
</defs>
</svg>
