<svg width="24" height="24" viewBox="0 0 24 24" fill="none" xmlns="http://www.w3.org/2000/svg">
<g clip-path="url(#clip0_1045_2038)">
<path d="M22 18.184V18C21.9984 16.6744 21.4711 15.4035 20.5338 14.4662C19.5964 13.5289 18.3256 13.0016 17 13H13V11.91C14.4834 11.6592 15.8185 10.8604 16.7407 9.67171C17.6628 8.48304 18.1048 6.99131 17.979 5.49214C17.8532 3.99297 17.1688 2.59577 16.0614 1.57742C14.954 0.559071 13.5044 -0.00610352 12 -0.00610352C10.4956 -0.00610352 9.04602 0.559071 7.93864 1.57742C6.83125 2.59577 6.14683 3.99297 6.02102 5.49214C5.89521 6.99131 6.33719 8.48304 7.25936 9.67171C8.18154 10.8604 9.51661 11.6592 11 11.91V13H7.00001C5.67441 13.0016 4.40356 13.5289 3.46623 14.4662C2.52889 15.4035 2.00159 16.6744 2.00001 18V18.184C1.33279 18.4199 0.770452 18.884 0.412375 19.4945C0.0542975 20.1049 -0.0764608 20.8222 0.0432105 21.5197C0.162882 22.2172 0.525277 22.8499 1.06635 23.3061C1.60741 23.7622 2.29232 24.0124 3.00001 24.0124C3.70769 24.0124 4.3926 23.7622 4.93367 23.3061C5.47474 22.8499 5.83713 22.2172 5.9568 21.5197C6.07647 20.8222 5.94571 20.1049 5.58764 19.4945C5.22956 18.884 4.66722 18.4199 4.00001 18.184V18C4.00001 17.2043 4.31608 16.4413 4.87869 15.8787C5.4413 15.316 6.20436 15 7.00001 15H11V18.184C10.3328 18.4199 9.77045 18.884 9.41238 19.4945C9.0543 20.1049 8.92354 20.8222 9.04321 21.5197C9.16288 22.2172 9.52528 22.8499 10.0663 23.3061C10.6074 23.7622 11.2923 24.0124 12 24.0124C12.7077 24.0124 13.3926 23.7622 13.9337 23.3061C14.4747 22.8499 14.8371 22.2172 14.9568 21.5197C15.0765 20.8222 14.9457 20.1049 14.5876 19.4945C14.2296 18.884 13.6672 18.4199 13 18.184V15H17C17.7957 15 18.5587 15.316 19.1213 15.8787C19.6839 16.4413 20 17.2043 20 18V18.184C19.3328 18.4199 18.7705 18.884 18.4124 19.4945C18.0543 20.1049 17.9235 20.8222 18.0432 21.5197C18.1629 22.2172 18.5253 22.8499 19.0663 23.3061C19.6074 23.7622 20.2923 24.0124 21 24.0124C21.7077 24.0124 22.3926 23.7622 22.9337 23.3061C23.4747 22.8499 23.8371 22.2172 23.9568 21.5197C24.0765 20.8222 23.9457 20.1049 23.5876 19.4945C23.2296 18.884 22.6672 18.4199 22 18.184Z" fill="#3196F8"/>
</g>
<defs>
<clipPath id="clip0_1045_2038">
<rect width="24" height="24" fill="white"/>
</clipPath>
</defs>
</svg>
