<svg width="24" height="24" viewBox="0 0 24 24" fill="none" xmlns="http://www.w3.org/2000/svg">
<path d="M15 17.9993H4C2.93913 17.9993 1.92172 17.5778 1.17157 16.8277C0.421427 16.0775 0 15.0601 0 13.9993V5.99927C0 4.67319 0.526784 3.40142 1.46447 2.46373C2.40215 1.52605 3.67392 0.999268 5 0.999268H10C10.6566 0.999268 11.3068 1.1286 11.9134 1.37987C12.52 1.63114 13.0712 1.99944 13.5355 2.46373C13.9998 2.92803 14.3681 3.47922 14.6194 4.08585C14.8707 4.69248 15 5.34266 15 5.99927V17.9993ZM24 10.9993V9.99927C24 9.34266 23.8707 8.69248 23.6194 8.08585C23.3681 7.47922 22.9998 6.92803 22.5355 6.46373C22.0712 5.99944 21.52 5.63114 20.9134 5.37987C20.3068 5.1286 19.6566 4.99927 19 4.99927H17V10.9993H24ZM17 12.9993V17.9993H20C21.0609 17.9993 22.0783 17.5778 22.8284 16.8277C23.5786 16.0775 24 15.0601 24 13.9993V12.9993H17ZM4.058 19.9993C4.02137 20.1635 4.00193 20.331 4 20.4993C4 21.1623 4.26339 21.7982 4.73223 22.267C5.20107 22.7359 5.83696 22.9993 6.5 22.9993C7.16304 22.9993 7.79893 22.7359 8.26777 22.267C8.73661 21.7982 9 21.1623 9 20.4993C8.99807 20.331 8.97863 20.1635 8.942 19.9993H4.058ZM15.058 19.9993C15.0214 20.1635 15.0019 20.331 15 20.4993C15 21.1623 15.2634 21.7982 15.7322 22.267C16.2011 22.7359 16.837 22.9993 17.5 22.9993C18.163 22.9993 18.7989 22.7359 19.2678 22.267C19.7366 21.7982 20 21.1623 20 20.4993C19.9981 20.331 19.9786 20.1635 19.942 19.9993H15.058Z" fill="#3196F8"/>
</svg>
