<svg width="24" height="24" viewBox="0 0 24 24" fill="none" xmlns="http://www.w3.org/2000/svg">
<path d="M19 4.99927H16.9C16.6679 3.87068 16.0538 2.85661 15.1613 2.12799C14.2687 1.39936 13.1522 1.00072 12 0.999268H5C3.67441 1.00086 2.40356 1.52815 1.46622 2.46549C0.528882 3.40283 0.00158786 4.67367 0 5.99927L0 14.9993C0.0025138 15.8949 0.305538 16.7638 0.860536 17.4667C1.41553 18.1697 2.19039 18.666 3.061 18.8763C2.96676 19.3767 2.98287 19.8917 3.10819 20.3853C3.23351 20.8789 3.46503 21.3392 3.7866 21.734C4.10816 22.1289 4.51202 22.4489 4.96999 22.6715C5.42796 22.8942 5.92901 23.0143 6.43817 23.0234C6.94733 23.0325 7.45234 22.9303 7.91796 22.7241C8.38357 22.5179 8.79858 22.2125 9.13401 21.8294C9.46944 21.4462 9.71722 20.9944 9.86006 20.5056C10.0029 20.0168 10.0373 19.5028 9.961 18.9993H14.043C14.0173 19.1647 14.0036 19.3318 14.002 19.4993C14.002 20.4275 14.3707 21.3178 15.0271 21.9741C15.6835 22.6305 16.5737 22.9993 17.502 22.9993C18.4303 22.9993 19.3205 22.6305 19.9769 21.9741C20.6333 21.3178 21.002 20.4275 21.002 19.4993C21.0009 19.2902 20.9804 19.0816 20.941 18.8763C21.8112 18.6656 22.5856 18.1691 23.1403 17.4662C23.6949 16.7633 23.9976 15.8946 24 14.9993V9.99927C23.9984 8.67367 23.4711 7.40283 22.5338 6.46549C21.5964 5.52815 20.3256 5.00086 19 4.99927ZM22 9.99927V10.9993H17V6.99927H19C19.7956 6.99927 20.5587 7.31534 21.1213 7.87795C21.6839 8.44056 22 9.20362 22 9.99927ZM2 14.9993V5.99927C2 5.20362 2.31607 4.44056 2.87868 3.87795C3.44129 3.31534 4.20435 2.99927 5 2.99927H12C12.7956 2.99927 13.5587 3.31534 14.1213 3.87795C14.6839 4.44056 15 5.20362 15 5.99927V16.9993H4C3.46957 16.9993 2.96086 16.7886 2.58579 16.4135C2.21071 16.0384 2 15.5297 2 14.9993ZM8 19.4993C8 19.8971 7.84196 20.2786 7.56066 20.5599C7.27936 20.8412 6.89782 20.9993 6.5 20.9993C6.10218 20.9993 5.72064 20.8412 5.43934 20.5599C5.15804 20.2786 5 19.8971 5 19.4993C5.00061 19.3284 5.03212 19.159 5.093 18.9993H7.907C7.96788 19.159 7.99939 19.3284 8 19.4993ZM17.5 20.9993C17.1022 20.9993 16.7206 20.8412 16.4393 20.5599C16.158 20.2786 16 19.8971 16 19.4993C16.0004 19.3283 16.0319 19.1589 16.093 18.9993H18.907C18.9681 19.1589 18.9996 19.3283 19 19.4993C19 19.8971 18.842 20.2786 18.5607 20.5599C18.2794 20.8412 17.8978 20.9993 17.5 20.9993ZM20 16.9993H17V12.9993H22V14.9993C22 15.5297 21.7893 16.0384 21.4142 16.4135C21.0391 16.7886 20.5304 16.9993 20 16.9993Z" fill="#575757"/>
</svg>
