<svg width="24" height="24" viewBox="0 0 24 24" fill="none" xmlns="http://www.w3.org/2000/svg">
<path d="M5.00068 21.9998C5.53112 21.9998 6.03982 21.789 6.4149 21.414C6.78997 21.0389 7.00068 20.5302 7.00068 19.9998V13.9998C7.00068 13.4693 6.78997 12.9606 6.4149 12.5855C6.03982 12.2105 5.53112 11.9998 5.00068 11.9998V10.9998C5.00068 9.14324 5.73818 7.36276 7.05094 6.05001C8.36369 4.73725 10.1442 3.99976 12.0007 3.99976C13.8572 3.99976 15.6377 4.73725 16.9504 6.05001C18.2632 7.36276 19.0007 9.14324 19.0007 10.9998V11.9998C18.4703 11.9998 17.9615 12.2105 17.5865 12.5855C17.2114 12.9606 17.0007 13.4693 17.0007 13.9998V19.9998H14.0007C13.7355 19.9998 13.4811 20.1051 13.2936 20.2926C13.106 20.4802 13.0007 20.7345 13.0007 20.9998C13.0007 21.265 13.106 21.5193 13.2936 21.7069C13.4811 21.8944 13.7355 21.9998 14.0007 21.9998H19.0007C20.1467 21.9963 21.2568 21.5993 22.145 20.8752C23.0333 20.1511 23.6458 19.1438 23.8801 18.022C24.1144 16.9002 23.9562 15.7319 23.4321 14.7128C22.9079 13.6937 22.0495 12.8856 21.0007 12.4238V10.9998C21.0007 8.61281 20.0525 6.32362 18.3646 4.63579C16.6768 2.94797 14.3876 1.99976 12.0007 1.99976C9.61374 1.99976 7.32455 2.94797 5.63672 4.63579C3.94889 6.32362 3.00068 8.61281 3.00068 10.9998V12.4238C1.95184 12.8856 1.09348 13.6937 0.569305 14.7128C0.0451257 15.7319 -0.113056 16.9002 0.121241 18.022C0.355537 19.1438 0.96809 20.1511 1.85635 20.8752C2.74462 21.5993 3.85467 21.9963 5.00068 21.9998V21.9998Z" fill="#3196F8"/>
</svg>
