<svg width="10" height="10" viewBox="0 0 10 10" fill="none" xmlns="http://www.w3.org/2000/svg">
<g clip-path="url(#clip0_1046_2251)">
<path d="M5 0C2.23857 0 0 2.23857 0 5C0 7.76143 2.23857 10 5 10C7.76143 10 10 7.76143 10 5C9.99701 2.2398 7.7602 0.00298828 5 0ZM6.66666 6.07791C6.83598 6.23375 6.84691 6.49734 6.69107 6.66666C6.53523 6.83598 6.27164 6.84691 6.10232 6.69107C6.09385 6.68328 6.08572 6.67514 6.07791 6.66666L5 5.58916L3.9225 6.66666C3.75697 6.82652 3.4932 6.82193 3.33334 6.65641C3.1774 6.49494 3.1774 6.23896 3.33334 6.0775L4.41084 5L3.33334 3.9225C3.17348 3.75697 3.17807 3.4932 3.34359 3.33334C3.50506 3.1774 3.76104 3.1774 3.9225 3.33334L5 4.41084L6.07791 3.33334C6.23375 3.16402 6.49734 3.15309 6.66666 3.30893C6.83598 3.46477 6.84691 3.72836 6.69107 3.89768C6.68328 3.90615 6.67514 3.91428 6.66666 3.92209L5.58916 5L6.66666 6.07791Z" fill="#EF4444"/>
</g>
<defs>
<clipPath id="clip0_1046_2251">
<rect width="10" height="10" fill="white"/>
</clipPath>
</defs>
</svg>
