<svg width="10" height="10" viewBox="0 0 10 10" fill="none" xmlns="http://www.w3.org/2000/svg">
<g clip-path="url(#clip0_1046_2131)">
<path d="M7.91666 0H2.08334C0.93332 0.00138672 0.00138672 0.93332 0 2.08334V7.91668C0.00138672 9.06668 0.93332 9.99863 2.08334 10H7.91668C9.06668 9.99863 9.99863 9.06668 10 7.91666V2.08334C9.99863 0.93332 9.06668 0.00138672 7.91666 0ZM8.33334 3.36625L4.4775 7.22209C4.15213 7.5476 3.62449 7.5477 3.29898 7.22232C3.29891 7.22225 3.29883 7.22217 3.29875 7.22209L1.66666 5.59043C1.50361 5.42738 1.50361 5.16305 1.66666 5.00002C1.82971 4.83699 2.09404 4.83697 2.25707 5.00002L3.88873 6.63168L7.74498 2.77584C7.90803 2.61338 8.17189 2.61385 8.33436 2.77688C8.49684 2.93992 8.49637 3.20379 8.33334 3.36625Z" fill="#3196F8"/>
</g>
<defs>
<clipPath id="clip0_1046_2131">
<rect width="10" height="10" fill="white"/>
</clipPath>
</defs>
</svg>
