<svg width="10" height="10" viewBox="0 0 10 10" fill="none" xmlns="http://www.w3.org/2000/svg">
<g clip-path="url(#clip0_1025_1932)">
<path d="M5 0C4.0111 0 3.0444 0.293245 2.22215 0.842652C1.39991 1.39206 0.759043 2.17295 0.380605 3.08658C0.00216643 4.00021 -0.0968503 5.00555 0.0960758 5.97545C0.289002 6.94536 0.765206 7.83627 1.46447 8.53553C2.16373 9.2348 3.05465 9.711 4.02455 9.90393C4.99446 10.0969 5.99979 9.99784 6.91342 9.6194C7.82705 9.24096 8.60794 8.6001 9.15735 7.77785C9.70676 6.95561 10 5.98891 10 5C9.99857 3.67436 9.47132 2.40342 8.53395 1.46605C7.59658 0.528678 6.32564 0.00143378 5 0V0ZM5 5.83333C4.81671 5.83395 4.63836 5.77395 4.49273 5.66266C4.34709 5.55137 4.24235 5.39504 4.1948 5.21803C4.14725 5.04101 4.15958 4.85324 4.22985 4.68396C4.30012 4.51468 4.4244 4.37338 4.58334 4.28208V2.91667C4.58334 2.80616 4.62723 2.70018 4.70537 2.62204C4.78351 2.5439 4.8895 2.5 5 2.5C5.11051 2.5 5.21649 2.5439 5.29463 2.62204C5.37277 2.70018 5.41667 2.80616 5.41667 2.91667V4.28208C5.5756 4.37338 5.69988 4.51468 5.77015 4.68396C5.84043 4.85324 5.85275 5.04101 5.80521 5.21803C5.75766 5.39504 5.65291 5.55137 5.50728 5.66266C5.36164 5.77395 5.18329 5.83395 5 5.83333Z" fill="#166534"/>
</g>
<defs>
<clipPath id="clip0_1025_1932">
<rect width="10" height="10" fill="white"/>
</clipPath>
</defs>
</svg>
