<svg width="24" height="24" viewBox="0 0 24 24" fill="none" xmlns="http://www.w3.org/2000/svg">
<path d="M16.551 12C18.856 10.1176 20.4175 7.47769 20.957 4.551C21.0392 3.99066 20.9998 3.41918 20.8414 2.87545C20.683 2.33171 20.4093 1.82848 20.039 1.4C19.6628 0.961938 19.1966 0.610121 18.6722 0.368524C18.1477 0.126928 17.5774 0.00123104 17 0L7.00498 0C6.4267 0.000313842 5.85531 0.125575 5.32993 0.36721C4.80454 0.608844 4.33757 0.961146 3.96098 1.4C3.58969 1.82928 3.31553 2.3337 3.15726 2.87876C2.99899 3.42381 2.96035 3.99663 3.04398 4.558C3.58089 7.4825 5.14095 10.1205 7.44498 12C5.14092 13.8801 3.58119 16.5189 3.04498 19.444C2.96152 20.005 3.00015 20.5774 3.15824 21.1221C3.31633 21.6667 3.59015 22.1709 3.96098 22.6C4.33757 23.0389 4.80454 23.3912 5.32993 23.6328C5.85531 23.8744 6.4267 23.9997 7.00498 24H17C17.5782 23.9995 18.1496 23.8741 18.6749 23.6325C19.2003 23.3909 19.6673 23.0387 20.044 22.6C20.4149 22.1709 20.689 21.6668 20.8474 21.1222C21.0058 20.5775 21.0449 20.0051 20.962 19.444C20.42 16.5184 18.8568 13.8804 16.551 12ZM17.828 20.559C17.7366 20.6946 17.6133 20.8057 17.4689 20.8826C17.3245 20.9595 17.1635 20.9998 17 21H6.99998C6.83628 21.0001 6.67505 20.96 6.53046 20.8832C6.38587 20.8065 6.26234 20.6954 6.17072 20.5597C6.07909 20.424 6.02217 20.268 6.00496 20.1052C5.98774 19.9424 6.01076 19.7778 6.07198 19.626C7.11173 17.3879 8.69267 15.444 10.672 13.97L11.372 13.411C11.5489 13.2702 11.7684 13.1936 11.9945 13.1936C12.2206 13.1936 12.44 13.2702 12.617 13.411L13.307 13.962C15.2862 15.4412 16.8697 17.3861 17.917 19.624C17.9798 19.7752 18.0046 19.9396 17.9891 20.1026C17.9736 20.2656 17.9182 20.4224 17.828 20.559ZM15.349 19H8.64898C9.54747 17.6787 10.6518 16.5099 11.92 15.538L12 15.472L12.071 15.527C13.3387 16.5059 14.4448 17.6779 15.349 19Z" fill="#A8179A"/>
</svg>
