<svg width="10" height="10" viewBox="0 0 10 10" fill="none" xmlns="http://www.w3.org/2000/svg">
<g clip-path="url(#clip0_1046_2192)">
<path d="M5.90875 0.0865325C5.84867 0.0754754 5.78689 0.0777644 5.7278 0.0932373C5.6687 0.10871 5.61373 0.136989 5.56677 0.176069C5.51982 0.21515 5.48204 0.264077 5.4561 0.319385C5.43016 0.374692 5.41669 0.435027 5.41667 0.496116V1.6957C4.94613 1.6335 4.46773 1.6725 4.01347 1.81009C3.55922 1.94769 3.13959 2.18071 2.78266 2.49356C2.42573 2.80642 2.13973 3.19189 1.94378 3.62419C1.74784 4.05649 1.64648 4.52565 1.64648 5.00028C1.64648 5.47492 1.74784 5.94408 1.94378 6.37638C2.13973 6.80868 2.42573 7.19415 2.78266 7.507C3.13959 7.81986 3.55922 8.05288 4.01347 8.19047C4.46773 8.32807 4.94613 8.36707 5.41667 8.30487V9.50445C5.41669 9.56554 5.43016 9.62587 5.4561 9.68118C5.48204 9.73649 5.51982 9.78542 5.56677 9.8245C5.61373 9.86358 5.6687 9.89186 5.7278 9.90733C5.78689 9.9228 5.84867 9.92509 5.90875 9.91403C7.0577 9.70261 8.09623 9.09525 8.84383 8.19754C9.59142 7.29983 10.0008 6.16852 10.0008 5.00028C10.0008 3.83204 9.59142 2.70074 8.84383 1.80303C8.09623 0.905312 7.0577 0.297955 5.90875 0.0865325ZM5.41667 5.7182V6.66695C5.41667 6.77746 5.37277 6.88344 5.29463 6.96158C5.21649 7.03972 5.11051 7.08362 5 7.08362C4.88949 7.08362 4.78351 7.03972 4.70537 6.96158C4.62723 6.88344 4.58333 6.77746 4.58333 6.66695V5.7182C4.45672 5.64592 4.35147 5.54144 4.27827 5.41536C4.20507 5.28927 4.16651 5.14608 4.16651 5.00028C4.16651 4.85449 4.20507 4.71129 4.27827 4.58521C4.35147 4.45913 4.45672 4.35465 4.58333 4.28237V2.91695C4.58333 2.80644 4.62723 2.70046 4.70537 2.62232C4.78351 2.54418 4.88949 2.50028 5 2.50028C5.11051 2.50028 5.21649 2.54418 5.29463 2.62232C5.37277 2.70046 5.41667 2.80644 5.41667 2.91695V4.28237C5.54328 4.35465 5.64852 4.45913 5.72173 4.58521C5.79493 4.71129 5.83349 4.85449 5.83349 5.00028C5.83349 5.14608 5.79493 5.28927 5.72173 5.41536C5.64852 5.54144 5.54328 5.64592 5.41667 5.7182ZM1.24416 2.07028C1.32505 2.08566 1.39956 2.12465 1.4583 2.18234C1.51704 2.24003 1.55737 2.31383 1.5742 2.39442C1.59104 2.47501 1.58362 2.55878 1.55289 2.63516C1.52215 2.71154 1.46948 2.7771 1.40152 2.82357C1.33356 2.87004 1.25335 2.89533 1.17103 2.89626C1.0887 2.89718 1.00795 2.8737 0.938961 2.82877C0.86997 2.78384 0.815837 2.71948 0.783392 2.64382C0.750948 2.56815 0.741648 2.48456 0.756665 2.40362C0.766674 2.34966 0.787241 2.29822 0.817187 2.25224C0.847132 2.20625 0.885865 2.16664 0.931162 2.13567C0.976459 2.10469 1.02743 2.08297 1.08114 2.07175C1.13486 2.06053 1.19026 2.06003 1.24416 2.07028ZM0.577498 3.73153C0.658379 3.74691 0.732892 3.7859 0.791631 3.84359C0.85037 3.90128 0.890703 3.97508 0.907538 4.05567C0.924372 4.13626 0.916955 4.22003 0.886221 4.29641C0.855488 4.37279 0.802816 4.43835 0.734854 4.48482C0.666893 4.53129 0.586687 4.55658 0.504363 4.55751C0.422038 4.55843 0.341284 4.53495 0.272294 4.49002C0.203304 4.44509 0.14917 4.38073 0.116726 4.30507C0.0842814 4.2294 0.0749809 4.14581 0.0899981 4.06487C0.100015 4.01104 0.120541 3.95972 0.150405 3.91383C0.180268 3.86794 0.218883 3.82838 0.264041 3.79743C0.3092 3.76647 0.360017 3.74472 0.413587 3.73341C0.467158 3.7221 0.522431 3.72147 0.576248 3.73153H0.577498ZM4.22 9.0932C4.30095 9.10868 4.37548 9.14782 4.43418 9.20567C4.49289 9.26352 4.53311 9.33748 4.54978 9.41819C4.56644 9.4989 4.5588 9.58274 4.52781 9.65911C4.49683 9.73548 4.44389 9.80094 4.37569 9.84722C4.3075 9.8935 4.22711 9.91851 4.1447 9.9191C4.06229 9.91969 3.98155 9.89583 3.9127 9.85053C3.84385 9.80523 3.78998 9.74053 3.75791 9.66462C3.72583 9.5887 3.71699 9.50498 3.7325 9.42403C3.7533 9.31579 3.81616 9.22019 3.90729 9.15818C3.99843 9.09618 4.11042 9.07281 4.21875 9.0932H4.22ZM2.50333 0.791949C2.58421 0.807326 2.65873 0.84632 2.71746 0.904008C2.7762 0.961697 2.81654 1.03549 2.83337 1.11608C2.85021 1.19667 2.84279 1.28045 2.81205 1.35682C2.78132 1.4332 2.72865 1.49876 2.66069 1.54523C2.59273 1.5917 2.51252 1.617 2.4302 1.61792C2.34787 1.61885 2.26712 1.59537 2.19813 1.55044C2.12914 1.50551 2.075 1.44115 2.04256 1.36548C2.01011 1.28981 2.00081 1.20623 2.01583 1.12528C2.02584 1.07133 2.04641 1.01989 2.07635 0.973903C2.1063 0.92792 2.14503 0.888306 2.19033 0.857333C2.23563 0.826361 2.28659 0.804641 2.34031 0.793421C2.39402 0.7822 2.44942 0.7817 2.50333 0.791949ZM4.2425 0.0873658C4.32325 0.104182 4.39719 0.144587 4.45496 0.203462C4.51273 0.262338 4.55173 0.337035 4.56701 0.418091C4.58229 0.499147 4.57317 0.582914 4.5408 0.658782C4.50843 0.73465 4.45428 0.799205 4.38519 0.844268C4.3161 0.889332 4.2352 0.912877 4.15272 0.91192C4.07024 0.910964 3.9899 0.885549 3.92188 0.838895C3.85386 0.792242 3.80121 0.726449 3.77062 0.64985C3.74002 0.573252 3.73284 0.489296 3.75 0.408616C3.77292 0.300824 3.83761 0.206502 3.92991 0.146295C4.02222 0.0860876 4.13461 0.0648987 4.2425 0.0873658ZM0.0974981 5.85278C0.112875 5.7719 0.151869 5.69739 0.209557 5.63865C0.267245 5.57991 0.341042 5.53958 0.421633 5.52274C0.502223 5.50591 0.585994 5.51333 0.662373 5.54406C0.738751 5.57479 0.804313 5.62747 0.850783 5.69543C0.897252 5.76339 0.922546 5.84359 0.923473 5.92592C0.924399 6.00824 0.900916 6.089 0.855987 6.15799C0.811059 6.22698 0.746699 6.28111 0.671031 6.31356C0.595363 6.346 0.51178 6.3553 0.430831 6.34028C0.376879 6.33027 0.325434 6.30971 0.279452 6.27976C0.233469 6.24982 0.193855 6.21108 0.162882 6.16579C0.13191 6.12049 0.11019 6.06952 0.0989696 6.01581C0.0877491 5.96209 0.087249 5.90669 0.0974981 5.85278ZM0.797915 7.50403C0.813292 7.42315 0.852286 7.34864 0.909974 7.2899C0.967662 7.23116 1.04146 7.19083 1.12205 7.17399C1.20264 7.15716 1.28641 7.16458 1.36279 7.19531C1.43917 7.22604 1.50473 7.27872 1.5512 7.34668C1.59767 7.41464 1.62296 7.49484 1.62389 7.57717C1.62482 7.65949 1.60133 7.74025 1.5564 7.80924C1.51148 7.87823 1.44712 7.93236 1.37145 7.96481C1.29578 7.99725 1.2122 8.00655 1.13125 7.99153C1.0773 7.98152 1.02585 7.96096 0.979868 7.93101C0.933886 7.90107 0.894271 7.86233 0.863299 7.81704C0.832327 7.77174 0.810607 7.72077 0.799386 7.66706C0.788166 7.61334 0.787666 7.55794 0.797915 7.50403ZM2.06958 8.75028C2.08496 8.6694 2.12395 8.59489 2.18164 8.53615C2.23933 8.47741 2.31313 8.43708 2.39372 8.42024C2.47431 8.40341 2.55808 8.41083 2.63446 8.44156C2.71083 8.47229 2.7764 8.52497 2.82287 8.59293C2.86934 8.66089 2.89463 8.74109 2.89556 8.82342C2.89648 8.90574 2.873 8.9865 2.82807 9.05549C2.78314 9.12448 2.71878 9.17861 2.64311 9.21106C2.56745 9.2435 2.48386 9.2528 2.40291 9.23778C2.34896 9.22777 2.29752 9.20721 2.25153 9.17726C2.20555 9.14732 2.16594 9.10858 2.13497 9.06329C2.10399 9.01799 2.08227 8.96702 2.07105 8.91331C2.05983 8.85959 2.05933 8.80419 2.06958 8.75028Z" fill="#E28B00"/>
</g>
<defs>
<clipPath id="clip0_1046_2192">
<rect width="10" height="10" fill="white"/>
</clipPath>
</defs>
</svg>
