<svg width="24" height="24" viewBox="0 0 24 24" fill="none" xmlns="http://www.w3.org/2000/svg">
<g clip-path="url(#clip0_873_2269)">
<path d="M19.6756 2.75814C18.4086 1.7038 16.9369 0.923305 15.3533 0.465842C13.7698 0.00837976 12.1086 -0.116135 10.4746 0.100143C7.45163 0.492861 4.69145 2.02131 2.75449 4.37515C0.817521 6.72899 -0.151032 9.73176 0.0454884 12.7738C0.242009 15.8158 1.58887 18.669 3.8126 20.754C6.03633 22.839 8.97022 23.9996 12.0186 24.0001H19.0006C20.3262 23.9986 21.597 23.4713 22.5343 22.5339C23.4717 21.5966 23.999 20.3257 24.0006 19.0001V11.3091V11.2461C23.8947 9.61159 23.4566 8.0158 22.7129 6.55636C21.9693 5.09692 20.9358 3.8045 19.6756 2.75814ZM8.00056 7.00014H12.0006C12.2658 7.00014 12.5201 7.1055 12.7077 7.29304C12.8952 7.48057 13.0006 7.73493 13.0006 8.00014C13.0006 8.26536 12.8952 8.51971 12.7077 8.70725C12.5201 8.89479 12.2658 9.00014 12.0006 9.00014H8.00056C7.73535 9.00014 7.48099 8.89479 7.29346 8.70725C7.10592 8.51971 7.00056 8.26536 7.00056 8.00014C7.00056 7.73493 7.10592 7.48057 7.29346 7.29304C7.48099 7.1055 7.73535 7.00014 8.00056 7.00014ZM16.0006 17.0001H8.00056C7.73535 17.0001 7.48099 16.8948 7.29346 16.7073C7.10592 16.5197 7.00056 16.2654 7.00056 16.0001C7.00056 15.7349 7.10592 15.4806 7.29346 15.293C7.48099 15.1055 7.73535 15.0001 8.00056 15.0001H16.0006C16.2658 15.0001 16.5201 15.1055 16.7077 15.293C16.8952 15.4806 17.0006 15.7349 17.0006 16.0001C17.0006 16.2654 16.8952 16.5197 16.7077 16.7073C16.5201 16.8948 16.2658 17.0001 16.0006 17.0001ZM16.0006 13.0001H8.00056C7.73535 13.0001 7.48099 12.8948 7.29346 12.7073C7.10592 12.5197 7.00056 12.2654 7.00056 12.0001C7.00056 11.7349 7.10592 11.4806 7.29346 11.293C7.48099 11.1055 7.73535 11.0001 8.00056 11.0001H16.0006C16.2658 11.0001 16.5201 11.1055 16.7077 11.293C16.8952 11.4806 17.0006 11.7349 17.0006 12.0001C17.0006 12.2654 16.8952 12.5197 16.7077 12.7073C16.5201 12.8948 16.2658 13.0001 16.0006 13.0001Z" fill="#3196F8"/>
</g>
<defs>
<clipPath id="clip0_873_2269">
<rect width="24" height="24" fill="white"/>
</clipPath>
</defs>
</svg>
