<svg width="24" height="24" viewBox="0 0 24 24" fill="none" xmlns="http://www.w3.org/2000/svg">
<g clip-path="url(#clip0_873_2430)">
<path d="M14.0001 7.00019C14.0001 7.39575 13.8828 7.78243 13.663 8.11133C13.4432 8.44023 13.1309 8.69657 12.7654 8.84795C12.4 8.99932 11.9978 9.03893 11.6099 8.96176C11.2219 8.88459 10.8656 8.69411 10.5858 8.4144C10.3061 8.1347 10.1157 7.77833 10.0385 7.39037C9.96132 7.00241 10.0009 6.60027 10.1523 6.23482C10.3037 5.86937 10.56 5.55701 10.8889 5.33725C11.2178 5.11749 11.6045 5.00019 12.0001 5.00019C12.5305 5.00019 13.0392 5.2109 13.4143 5.58597C13.7893 5.96105 14.0001 6.46976 14.0001 7.00019ZM16.9581 12.1842L13.9001 15.2152C13.6519 15.4654 13.3567 15.6639 13.0315 15.7994C12.7063 15.9349 12.3574 16.0047 12.0051 16.0047C11.6527 16.0047 11.3039 15.9349 10.9786 15.7994C10.6534 15.6639 10.3582 15.4654 10.1101 15.2152L7.05406 12.2002C5.74182 10.8474 5.00693 9.03733 5.00469 7.15262C5.00245 5.2679 5.73304 3.45614 7.04206 2.10019C7.68543 1.43548 8.45588 0.906921 9.30762 0.54595C10.1594 0.184978 11.075 -0.0010376 12.0001 -0.0010376C12.9251 -0.0010376 13.8408 0.184978 14.6925 0.54595C15.5442 0.906921 16.3147 1.43548 16.9581 2.10019C18.2651 3.45322 18.9956 5.26095 18.9956 7.14219C18.9956 9.02343 18.2651 10.8312 16.9581 12.1842ZM16.0001 7.00019C16.0001 6.20906 15.7655 5.4357 15.3259 4.77791C14.8864 4.12011 14.2617 3.60742 13.5308 3.30467C12.7999 3.00192 11.9956 2.92271 11.2197 3.07705C10.4438 3.23139 9.73104 3.61235 9.17163 4.17176C8.61222 4.73117 8.23126 5.4439 8.07692 6.21983C7.92258 6.99575 8.00179 7.80002 8.30454 8.53092C8.60729 9.26183 9.11998 9.88654 9.77778 10.3261C10.4356 10.7656 11.2089 11.0002 12.0001 11.0002C13.0609 11.0002 14.0783 10.5788 14.8285 9.82862C15.5786 9.07847 16.0001 8.06106 16.0001 7.00019ZM20.7531 9.20019C20.3881 10.8529 19.5694 12.3711 18.3891 13.5842L15.3111 16.6372C14.878 17.0713 14.3637 17.4158 13.7975 17.651C13.2312 17.8863 12.6242 18.0076 12.0111 18.0082C11.3982 18.0084 10.7914 17.8879 10.2252 17.6535C9.65893 17.4191 9.14444 17.0755 8.71106 16.6422L5.64806 13.6192C4.4832 12.4234 3.66567 10.9331 3.28306 9.30819C2.63355 9.54626 2.03968 9.91483 1.53806 10.3912C1.04911 10.8561 0.660436 11.416 0.39594 12.0367C0.131445 12.6573 -0.00327713 13.3255 6.05319e-05 14.0002V18.0752C0.00216213 19.1565 0.353853 20.2082 1.00265 21.0732C1.65145 21.9383 2.56257 22.5704 3.60006 22.8752L6.47006 23.7752C6.95212 23.9252 7.45419 24.0011 7.95906 24.0002C8.41705 23.9996 8.87285 23.937 9.31406 23.8142L15.0941 22.1042C15.6089 21.9631 16.1522 21.9631 16.6671 22.1042L19.0541 22.9042C19.6424 23.0474 20.2555 23.0552 20.8472 22.9269C21.439 22.7987 21.9939 22.5378 22.4701 22.1639C22.9464 21.79 23.3315 21.3129 23.5965 20.7685C23.8616 20.2241 23.9995 19.6267 24.0001 19.0212V13.8722C23.9966 12.856 23.6842 11.8649 23.1043 11.0304C22.5243 10.196 21.7043 9.55765 20.7531 9.20019Z" fill="#3196F8"/>
</g>
<defs>
<clipPath id="clip0_873_2430">
<rect width="24" height="24" fill="white"/>
</clipPath>
</defs>
</svg>
