<svg width="45" height="28" viewBox="0 0 45 28" fill="none" xmlns="http://www.w3.org/2000/svg">
<path fill-rule="evenodd" clip-rule="evenodd" d="M3.92326 27.2016L2.52533 27.267C1.97376 27.3541 0.887746 27.4761 0.956216 27.5284C1.02469 27.5807 3.22905 27.5938 4.32267 27.5938H32.0531C36.1233 27.572 44.4063 27.3324 44.606 27.1036C43.636 27.1036 43.0083 27.0056 42.4663 26.9402C42.7421 26.1777 43.1453 24.2803 42.5519 22.7902L43.3507 22.8882L43.1225 13.6078L26.8893 2.53019C25.7767 2.70447 23.4772 3.01381 23.1805 2.85696V3.60854C24.0554 3.57586 25.868 3.62815 26.119 4.0987C26.3701 4.56926 26.4328 5.4058 26.4328 5.76525V7.20306L26.3758 8.54283C26.2331 7.30109 26.2788 4.76532 25.8908 4.42548C25.5028 4.08563 24.0744 4.19674 23.4087 4.29477C23.3136 4.37101 23.1349 4.61501 23.1805 4.98099C23.2262 5.34698 23.1995 6.98521 23.1805 7.75857H22.9237L22.9523 2.13806C23.2946 1.54986 24.1961 0.9486 23.5799 0.242767C22.9637 -0.463065 22.0869 0.536864 21.7255 1.12506C21.6019 1.36469 21.3546 2.07924 21.3546 3.02035L14.9641 3.90264C14.2318 4.03335 12.5619 4.84375 11.7403 7.03967L10.1426 7.39912C9.93342 7.47537 9.48076 7.88928 9.34382 8.93496L8.34529 9.06567C8.06 9.19638 8.03147 9.43166 8.03147 9.71922V11.8106C6.94736 11.9304 4.71067 12.3857 4.43679 13.2484C4.09444 14.3267 4.15149 14.7842 4.15149 14.9803L3.95179 17.2677C3.33366 17.442 2.06315 18.0585 1.92621 19.1303V20.5354C1.75504 20.6117 1.41269 20.908 1.41269 21.4831V23.4764C1.41269 24.0428 1.75504 25.2737 2.78209 24.8489C2.8867 25.4697 3.40973 26.6788 3.92326 27.2016ZM15.1923 27.0056L7.8603 27.1036C8.36241 26.7115 8.545 25.9817 8.57353 25.6658H14.6217C14.5304 26.3194 14.9641 26.8313 15.1923 27.0056ZM17.6744 27.0056C17.3796 26.7333 16.847 25.9599 16.5902 25.0776C16.6853 25.6767 17.0353 26.901 17.6744 27.0056ZM2.78209 20.4374C2.97228 20.3285 3.42114 20.1433 3.69503 20.274C3.96891 20.4047 3.20052 20.4374 2.78209 20.4374ZM3.75208 19.9799L2.38268 20.0453H2.32562C2.32562 19.9146 2.33703 19.5878 2.38268 19.3264C2.42833 19.065 3.35267 18.9996 3.80914 18.9996L3.75208 19.9799ZM3.80914 18.4768C3.69503 18.4245 2.98179 18.5421 2.63944 18.6075C2.77638 18.3461 3.49532 17.7905 3.95179 17.6925L3.80914 18.4768ZM4.29414 19.7512L4.75061 14C4.87302 12.4576 8.34529 12.4361 10.485 12.3661C12.8149 12.2898 17.6401 12.1308 18.302 12.1047C18.9639 12.0785 19.2244 9.56673 19.272 8.31409C19.272 8.24874 19.466 8.1311 20.242 8.18338C21.018 8.23567 20.9267 8.4448 20.784 8.54283H19.7855C19.6334 9.26174 19.3176 10.8956 19.272 11.6799C19.2264 12.4641 18.7395 12.6602 18.5017 12.6602L11.4265 13.085C11.609 13.1111 11.6547 13.3573 11.6547 13.4771C11.5976 15.1763 11.4892 18.7317 11.512 19.3591C11.5349 19.9865 10.951 20.2958 10.6562 20.3721C9.08705 20.4265 5.77766 20.5551 5.09296 20.6335C4.40826 20.7119 4.27512 20.078 4.29414 19.7512ZM9.45793 11.8106H9.05853L8.91588 9.42512L10.2568 9.29441V9.62119C10.1655 9.59505 9.68617 11.0699 9.45793 11.8106ZM11.2267 11.7452H11.027L11.4265 9.42512H11.6547L11.2267 11.7452ZM17.7314 11.5492C16.6473 11.5927 14.4563 11.6799 14.365 11.6799C14.7073 11.5753 15.82 10.4163 16.3335 9.84993L14.365 9.68654C14.9356 9.68654 17.1894 9.22906 18.302 9.09835L17.7314 11.5492ZM18.302 13.6078C17.526 13.2941 13.7944 13.7385 12.0256 14C11.8924 13.8039 12.3907 13.3791 15.4491 13.2484C16.362 13.2048 18.2107 13.2157 18.302 13.6078ZM15.6203 20.0453H12.2253V19.8492C12.8624 19.8383 14.268 19.8165 14.7929 19.8165C15.3178 19.8165 15.4871 19.6423 15.5061 19.5551C15.5442 19.4462 15.6602 19.0911 15.82 18.5421C15.9797 17.9931 15.7534 17.8995 15.6203 17.9213H12.7388C13.7202 16.771 16.6663 16.3745 18.0167 16.3201C15.0953 15.8234 13.1287 16.8538 12.5106 17.4311C13.8343 15.7319 16.0672 15.5467 17.0182 15.6665C17.5793 15.7645 18.9525 16.2547 19.9567 17.4311C20.9609 18.6075 21.0788 22.5832 21.0123 24.4241C20.8525 24.2411 20.7555 22.4743 20.727 21.6138C20.5748 20.2196 19.9738 17.4703 18.787 17.6272C17.6002 17.784 16.8578 19.261 16.847 19.9473C16.6758 17.2024 18.8441 17.1043 19.6143 17.6272C18.3305 16.4834 17.4747 16.8756 16.6758 17.4311C16.1338 17.9866 15.9055 19.0105 15.6203 20.0453ZM12.7388 18.2153H15.5061C15.5061 19.1042 15.1257 19.4135 14.9356 19.4571H12.2253C12.2253 18.5683 12.5676 18.2589 12.7388 18.2153ZM19.1294 8.01999C16.4362 7.78472 11.8449 8.53194 9.88587 8.93496C9.94293 8.47748 9.98275 7.95187 10.9415 7.66054C12.3394 7.23574 17.3461 6.86539 20.242 6.74557L21.2405 7.39912C21.0884 7.34466 20.6585 7.21613 20.1564 7.1377C19.6543 7.05928 19.2625 7.69322 19.1294 8.01999ZM19.272 6.25541C18.7242 6.02014 14.7454 6.57129 12.8244 6.87628C13.0298 6.06588 14.6598 5.4058 15.4491 5.17706C14.5818 5.09863 13.5091 5.66722 13.0812 5.96132C13.2866 5.46462 14.422 4.79582 14.9641 4.52351L21.4117 3.73925V4.22941C20.9552 4.25555 19.795 5.59097 19.272 6.25541ZM22.1535 7.75857H21.7255V2.20341C21.7255 1.07931 22.5529 0.340799 23.1805 0.340799C23.3802 0.340799 23.4831 0.819997 23.0379 0.96167C22.5243 1.12506 22.2105 1.77861 22.2105 2.13806L22.1535 7.75857ZM19.3291 15.5031L19.2149 13.2484C19.0723 13.8366 19.0152 15.0783 19.0152 15.5031C19.0152 15.8626 19.3291 15.7319 19.3291 15.5031ZM19.4717 12.5295V12.2354C20.2477 12.2354 20.765 12.0611 20.9267 11.974C20.9723 12.4707 19.9757 12.5513 19.4717 12.5295ZM26.604 9.13103L26.7752 18.4441L26.2331 9.29441L23.694 8.08535C23.694 8.08535 23.5799 8.05267 23.6084 7.92196C23.637 7.79125 23.7511 7.85661 23.7511 7.85661L26.604 9.13103ZM18.3876 19.8492C17.5659 19.8492 17.1133 21.0256 16.9897 21.6138C16.9571 20.7424 17.191 19.0519 18.3876 19.261C19.5842 19.4702 19.9322 21.3742 19.9567 22.3C19.776 21.4831 19.2092 19.8492 18.3876 19.8492ZM22.1535 18.7709H21.8396C21.8396 19.3983 21.5353 19.5116 21.3832 19.4898V19.8492C22.0679 19.8754 22.182 19.1412 22.1535 18.7709ZM27.5455 19.7839V19.4898L42.6945 22.0713V22.3327C42.1011 22.385 32.3479 20.6553 27.5455 19.7839ZM27.0605 3.64122L27.4314 18.248L42.8372 21.4177L42.6945 14L27.0605 3.64122ZM25.6911 26.8749H23.7511C24.1163 26.6657 24.3978 25.7203 24.4929 25.2737H25.149C25.0806 25.7965 25.4819 26.559 25.6911 26.8749ZM36.3895 26.7442H33.451C33.6564 26.7442 33.898 25.5678 33.9931 24.9796H35.9901C35.9217 25.79 36.2279 26.4936 36.3895 26.7442ZM28.7152 21.2544C29.7708 21.2544 29.9419 26.2867 28.8293 26.2867C28.5725 26.2867 27.8308 25.5351 27.8308 23.9012C27.8308 21.6792 28.2017 21.2544 28.7152 21.2544ZM31.2258 21.4177C32.2813 21.4177 32.4525 26.4501 31.3399 26.4501C31.0831 26.4501 30.3413 25.6985 30.3413 24.0646C30.3413 21.8425 30.7122 21.4177 31.2258 21.4177ZM39.3566 24.6528C39.4022 25.7769 38.9762 26.3411 38.7575 26.4827C38.253 26.4827 38.1615 25.3791 38.1044 24.6896L38.1013 24.6528C38.0442 23.9666 38.301 22.3981 38.6719 22.4307C39.0428 22.4634 39.2995 23.2477 39.3566 24.6528ZM41.0113 24.6528C41.0569 25.7769 40.8423 26.4827 40.4978 26.4827C39.9933 26.4827 39.9018 25.3791 39.8446 24.6896L39.8416 24.6528C39.7845 23.9666 39.9272 22.6922 40.2695 22.6922C40.6415 22.6922 40.9542 23.2477 41.0113 24.6528ZM42.4663 24.6528C42.5119 25.7769 42.3258 26.4827 41.9813 26.4827C41.4678 26.4827 41.4963 25.339 41.4392 24.6528C41.3822 23.9666 41.5248 22.8555 41.8672 22.8555C42.2391 22.8555 42.4092 23.2477 42.4663 24.6528ZM23.5514 19.4898L26.1761 20.0453C25.3868 19.9908 23.7762 19.7512 23.5514 19.7512C23.2661 19.7512 23.2946 19.4571 23.5514 19.4898ZM22.2676 20.9276C22.8838 21.6334 22.6194 23.2041 22.4102 23.9012C22.6575 23.8141 23.1634 23.3588 23.209 22.2347C23.2547 21.1106 22.6004 20.8949 22.2676 20.9276ZM23.6084 21.287C24.0421 22.2804 23.618 23.4437 23.3517 23.9012C23.8081 23.8489 24.0174 23.1387 24.0649 22.7902H25.634C25.771 22.0059 25.3297 21.5484 25.092 21.4177L23.6084 21.287ZM25.8052 21.5158C26.3301 22.3262 26.0239 23.618 25.8052 24.1626C26.0791 24.0319 26.2807 23.2586 26.3473 22.8882C26.4233 22.8991 26.5812 22.9144 26.604 22.8882C26.604 21.6073 26.0715 21.4395 25.8052 21.5158ZM22.2105 12.2027H21.5258V18.5094C21.7255 18.3461 22.3246 18.3134 22.8952 18.5094C23.3517 18.6663 23.4468 18.248 23.4373 18.0193C23.3802 15.1219 23.2661 9.20292 23.2661 8.70622C23.2661 8.20953 22.7526 8.08535 22.4958 8.08535C21.754 8.08535 21.4117 8.31409 21.4117 8.64087V11.6799H22.1249V8.41212C22.7183 8.28141 22.9998 8.55373 23.0664 8.70622V18.0193H22.2105V12.2027ZM25.1205 9.94796V14.8823C25.0064 14.6535 24.8352 10.6669 24.8637 10.0133C24.8866 9.49048 24.122 9.62119 24.122 9.29441C24.122 8.82131 25.1205 9.65386 25.1205 9.94796ZM19.3861 23.3784C19.5022 25.1062 18.9582 25.9599 18.4161 25.9599C18.0167 25.9599 17.4747 25.9272 17.3605 23.3784C17.2874 21.7445 17.9882 20.9603 18.3876 20.9603C18.9011 21.0256 19.272 21.6792 19.3861 23.3784ZM16.0197 23.4111L15.8485 23.8685C15.9626 23.8685 16.2194 23.5636 16.3335 23.4111C16.3715 22.9318 16.4533 21.8622 16.4761 21.4177C16.499 20.9733 16.3335 20.884 16.2479 20.8949C11.7308 20.9711 2.61091 21.1236 2.26856 21.1236C1.92621 21.1236 1.84062 21.4068 1.84062 21.5484C1.83111 21.8099 1.8178 22.483 1.84062 23.0843C1.86345 23.6856 2.13543 23.7923 2.26856 23.7705H14.5361C14.9013 23.7705 14.9736 23.5309 14.9641 23.4111L15.1067 21.4177H16.0197V23.4111ZM15.8485 21.8425H15.5061C15.5347 21.897 15.6145 22.0059 15.7058 22.0059C15.7971 22.0059 15.839 21.897 15.8485 21.8425Z" fill="white"/>
<path fill-rule="evenodd" clip-rule="evenodd" d="M4.86473 19.3264C4.86473 19.1695 5.09296 16.0151 5.20708 14.4574C5.20708 14.2396 5.40107 13.8039 6.17707 13.8039C6.95307 13.8039 9.37235 13.6732 10.485 13.6078C10.6657 13.5425 11.027 13.5686 11.027 14.196C11.027 14.8234 10.9129 17.747 10.8559 19.1303C10.8559 19.37 10.7189 19.8492 10.1712 19.8492C9.6234 19.8492 6.6906 19.9799 5.29266 20.0453C5.13502 20.0453 4.82872 19.9015 4.86473 19.3264ZM5.49237 15.0783C7.21363 15.0456 10.6562 14.9476 10.6562 14.8169C10.6562 14.6535 5.69207 14.8823 5.49237 15.0783ZM5.49237 16.3854C6.95687 16.2111 10.0399 15.9149 10.6562 16.124C10.4964 16.307 7.14707 16.3745 5.49237 16.3854ZM5.29266 17.6925C6.96638 17.7034 10.348 17.6794 10.485 17.4964C10.6562 17.2677 5.49237 17.4964 5.29266 17.6925ZM10.485 18.8689L5.29266 18.9996C6.74766 18.5748 9.96005 18.4833 10.485 18.7709V18.8689Z" fill="white"/>
<path fill-rule="evenodd" clip-rule="evenodd" d="M13.6517 23.117C9.92391 23.3021 2.42832 23.6333 2.26856 23.4764C2.1088 23.3196 2.12592 23.0407 2.15445 22.9209V21.8752C2.15445 21.6792 2.09739 21.6465 2.6965 21.6465C3.33556 21.6465 6.21511 21.7336 7.575 21.7772H3.92326V22.9863L13.6517 23.117ZM3.63797 22.0713H2.58238V22.3H3.63797V22.0713Z" fill="white"/>
<path fill-rule="evenodd" clip-rule="evenodd" d="M12.3679 22.0713C12.3679 21.8752 12.4421 21.4831 13.0812 21.4831H14.3364C14.4601 21.5049 14.6902 21.6596 14.6217 22.104C14.5533 22.5484 14.2699 22.6377 14.1367 22.6268H12.6817C12.5676 22.6268 12.3679 22.3588 12.3679 22.0713ZM13.1953 21.8425H14.1367V22.104C13.8229 22.0713 13.2809 22.104 13.1953 22.104C13.1953 22.1824 13.0621 22.2238 12.9956 22.2347C12.9385 22.2347 12.8244 22.1889 12.8244 22.0059C12.8244 21.8229 13.0716 21.8208 13.1953 21.8425Z" fill="white"/>
<path d="M17.817 23.4111C17.8836 24.2389 18.2164 25.6462 19.0152 24.6528C18.9201 25.0231 18.6272 25.6919 18.2164 25.4044C17.8056 25.1168 17.6458 23.9666 17.817 23.4111Z" fill="white"/>
<path d="M18.1308 23.5418C18.1306 23.8794 18.2159 24.5744 18.5588 24.6528C18.9017 24.7312 19.044 23.9012 19.0723 23.4764C19.1008 23.1388 19.0552 22.4373 18.6444 22.3327C18.2335 22.2281 18.1308 23.0952 18.1308 23.5418Z" fill="white"/>
<path d="M17.9311 21.9079C18.1751 21.7359 18.7264 21.5279 19.0041 22.0498C18.462 21.0064 18.0634 21.5184 17.9311 21.9079Z" fill="white"/>
<path d="M28.9149 22.9209C29.0575 23.5744 29.2344 25.0123 28.8008 25.5351C28.8673 25.5678 29.0176 25.5939 29.0861 25.4371C29.0861 25.5787 29.0119 25.8161 28.7152 25.6331C28.4185 25.4501 28.3253 24.3587 28.3158 23.8359C28.2968 23.2368 28.3728 22.0386 28.8293 22.0386C29.2858 22.0386 29.4189 23.5418 29.4284 24.2934C29.3333 23.8359 29.0944 22.9281 28.9719 22.8229C28.8578 22.7248 28.8864 22.7902 28.9149 22.9209Z" fill="white"/>
<path d="M31.4255 23.0843C31.5681 23.7378 31.745 25.1756 31.3113 25.6985C31.3779 25.7312 31.5282 25.7573 31.5966 25.6004C31.5966 25.7421 31.5225 25.9795 31.2258 25.7965C30.9291 25.6135 30.8359 24.5221 30.8263 23.9993C30.8073 23.4002 30.8834 22.202 31.3399 22.202C31.7963 22.202 31.9295 23.7052 31.939 24.4567C31.8439 23.9993 31.605 23.0915 31.4825 22.9863C31.3684 22.8882 31.3969 22.9536 31.4255 23.0843Z" fill="white"/>
<path d="M38.7575 25.8945C38.9287 25.4371 39.0085 24.3326 38.8716 23.8359C38.9762 23.923 39.1797 24.2999 39.1569 24.8489C39.2044 24.2716 39.2197 23.1104 38.786 23.0843C38.6148 23.0843 38.3923 23.4372 38.4151 24.4567C38.438 25.4763 38.5578 26.156 38.7575 26.156C38.8716 26.156 38.9115 26.0056 38.9572 25.7965C38.9191 25.8401 38.8259 25.9207 38.7575 25.8945Z" fill="white"/>
<path d="M40.4692 25.8292C40.6404 25.3717 40.6632 24.4633 40.5263 23.9666C40.6309 24.0537 40.8344 24.4306 40.8116 24.9796C40.8591 24.4023 40.9314 23.3392 40.4978 23.313C40.3266 23.313 40.1326 23.4372 40.1554 24.4567C40.1782 25.4763 40.2695 26.0579 40.4692 26.0579C40.5834 26.0579 40.6233 25.9403 40.6689 25.7312C40.6309 25.7747 40.5377 25.8553 40.4692 25.8292Z" fill="white"/>
<path d="M41.9813 25.8292C42.1525 25.3717 42.1468 24.4633 42.0098 23.9666C42.1144 24.0537 42.3179 24.4306 42.2951 24.9796C42.3196 24.3914 42.4149 23.4699 41.9813 23.4437C41.8101 23.4437 41.7017 23.6333 41.7245 24.6528C41.7473 25.6723 41.7816 25.9926 41.9813 25.9926C42.0954 25.9926 42.1068 25.9403 42.1525 25.7312C42.1144 25.7747 42.0498 25.8553 41.9813 25.8292Z" fill="white"/>
</svg>
