<svg width="28" height="28" viewBox="0 0 28 28" fill="none" xmlns="http://www.w3.org/2000/svg">
<rect width="27.9997" height="27.9997" rx="2.62497" fill="#3B3B3B"/>
<path d="M20.1756 1.98446C20.4918 1.46981 21.2594 0.595394 21.7986 1.21298C22.3372 1.83041 21.5483 2.35662 21.2488 2.87118L21.2244 7.78817H21.449C21.4656 7.11145 21.4889 5.67901 21.449 5.35848C21.4091 5.03864 21.5649 4.82488 21.6482 4.7579C22.2305 4.67215 23.4802 4.5751 23.8201 4.87216C24.1596 5.1695 24.1201 7.38817 24.2449 8.47469L24.2947 7.30282V6.04403C24.2946 5.72926 24.2399 4.99754 24.0203 4.58602C23.8002 4.17449 22.2144 4.12873 21.449 4.15731V3.50009C21.7091 3.63718 23.7206 3.36642 24.6941 3.21395L28.0008 5.46981V6.27743L24.8435 4.18563L25.1687 16.9669L28.0008 17.5489V18.5177L25.2683 18.0528V18.3106C26.0544 18.4533 26.9923 18.6208 28.0008 18.8009V20.0313C27.8233 20.3369 27.7146 20.9348 27.7146 22.0557C27.7146 22.6842 27.8411 23.1632 28.0008 23.503V25.1436H4.94802C3.99273 25.1436 2.06909 25.1325 2.0027 25.087C1.94279 25.0413 2.89313 24.9338 3.37575 24.8575L4.59841 24.8009C4.14914 24.3434 3.69198 23.2856 3.60036 22.7423C2.70168 23.114 2.40212 22.0367 2.40212 21.5411V19.797C2.40218 19.2939 2.70157 19.0346 2.85134 18.9679V17.7384C2.97127 16.8007 4.08296 16.261 4.6238 16.1085L4.7986 14.1075C4.7986 13.936 4.74807 13.5354 5.04763 12.5919C5.28726 11.8371 7.24442 11.439 8.19313 11.3341V9.50399C8.19314 9.25262 8.21846 9.0471 8.46755 8.9327L9.34157 8.81747C9.46146 7.90283 9.85775 7.54042 10.0408 7.47372L11.4383 7.15926C12.1572 5.23805 13.6188 4.52951 14.2595 4.41512L19.8513 3.64266C19.8514 2.81942 20.0674 2.19422 20.1756 1.98446ZM8.66774 23.4571C8.64271 23.7336 8.48291 24.3719 8.04372 24.7149L14.4588 24.629C14.259 24.4763 13.8801 24.0285 13.9597 23.4571H8.66774ZM15.6824 22.9425C15.7656 23.4666 16.0718 24.537 16.6306 24.629C16.3726 24.3905 15.907 23.7141 15.6824 22.9425ZM22.5974 23.1134C22.5142 23.5041 22.2675 24.3317 21.948 24.5147H23.6453C23.4622 24.2382 23.1118 23.5707 23.1716 23.1134H22.5974ZM26.2918 19.5968C25.8425 19.5968 25.5183 19.9691 25.5183 21.9132C25.5184 23.3418 26.1664 23.9994 26.3914 24.0001C27.3649 24.0001 27.2154 19.5968 26.2918 19.5968ZM17.2547 19.3399C16.9051 19.3405 16.2923 20.0264 16.3562 21.4552C16.4561 23.6852 16.9306 23.714 17.28 23.714C17.7544 23.714 18.2302 22.9669 18.1287 21.4552C18.0288 19.9686 17.704 19.3971 17.2547 19.3399ZM26.3914 20.2833C26.7908 20.2833 26.9075 21.5983 26.9158 22.2559C26.8326 21.8558 26.6236 21.0623 26.5164 20.9698C26.4166 20.8841 26.4416 20.9407 26.4666 21.0548C26.5914 21.6266 26.7464 22.8854 26.367 23.3429C26.4253 23.3714 26.5561 23.3936 26.616 23.2569C26.6159 23.3808 26.5512 23.5878 26.2918 23.4278C26.0324 23.2672 25.9505 22.3129 25.9422 21.8556C25.9255 21.3315 25.9923 20.2839 26.3914 20.2833ZM16.7556 21.4845C16.814 22.2088 17.1056 23.4394 17.8045 22.5704C17.7213 22.8944 17.4646 23.4799 17.1052 23.2286C16.7459 22.9771 16.6061 21.9707 16.7556 21.4845ZM17.4802 20.5401C17.8394 20.6319 17.8792 21.2457 17.8543 21.5411C17.8295 21.9127 17.705 22.6388 17.405 22.5704C17.1051 22.5018 17.0299 21.8943 17.03 21.5987C17.03 21.208 17.1208 20.4486 17.4802 20.5401ZM16.0564 14.7081C15.2241 14.6034 13.2712 14.7655 12.1131 16.252C12.654 15.7469 14.3744 14.8449 16.9304 15.2794C15.7488 15.3271 13.171 15.6744 12.3123 16.6807H14.8338C14.9502 16.6617 15.1482 16.7436 15.0086 17.2237C14.8688 17.7041 14.7674 18.0151 14.7341 18.1104C14.7174 18.1867 14.5689 18.3389 14.1101 18.339C13.6508 18.339 12.4206 18.3577 11.8631 18.3673V18.5391H14.8338C15.0834 17.6338 15.2833 16.7381 15.7576 16.252C16.4565 15.766 17.2055 15.4222 18.3289 16.4229C17.6549 15.9655 15.7573 16.0516 15.907 18.4532C15.9165 17.8528 16.566 16.5604 17.6043 16.4229C18.6427 16.2857 19.1693 18.6912 19.3025 19.9112C19.3275 20.6638 19.4118 22.2089 19.5515 22.3702C19.6098 20.7595 19.5064 17.2813 18.6277 16.252C17.749 15.2228 16.5474 14.7939 16.0564 14.7081ZM23.7459 19.8253C24.2052 20.5343 23.9373 21.6651 23.7459 22.1417C23.9854 22.027 24.1613 21.3504 24.2195 21.0265C24.2859 21.036 24.4236 21.0491 24.4441 21.0265C24.4441 19.9063 23.979 19.7588 23.7459 19.8253ZM20.6502 19.3106C21.1894 19.9282 20.9582 21.3032 20.7752 21.9132C20.9915 21.8369 21.4343 21.4383 21.4744 20.4552C21.5143 19.4717 20.9414 19.2821 20.6502 19.3106ZM21.823 19.6261C22.2023 20.4952 21.8314 21.5129 21.5984 21.9132C21.9978 21.8674 22.1808 21.2455 22.2224 20.9405H23.5955C23.7151 20.2549 23.3299 19.855 23.1218 19.7403L21.823 19.6261ZM3.15114 19.4825C2.85158 19.4825 2.77614 19.7307 2.77614 19.8546C2.76782 20.0835 2.75618 20.6724 2.77614 21.1983C2.79617 21.7242 3.03466 21.818 3.15114 21.7989H13.8855C14.2042 21.7987 14.2677 21.5894 14.2595 21.4845L14.3845 19.7403H15.1834V21.4845L15.033 21.8839C15.1328 21.8839 15.3578 21.618 15.4578 21.4845C15.4911 21.0652 15.5628 20.1294 15.5828 19.7403C15.6028 19.3515 15.4575 19.2728 15.3826 19.2823C11.4315 19.349 3.45643 19.4824 3.15114 19.4825ZM3.52517 19.9405C4.08431 19.9405 6.60369 20.0166 7.79372 20.0548H4.59841V21.1124L13.1111 21.2266C9.8501 21.3886 3.2945 21.6781 3.15114 21.5411C3.01135 21.4039 3.02559 21.1596 3.05056 21.0548V20.1407C3.05056 19.9692 3.00102 19.9405 3.52517 19.9405ZM13.7107 19.797C13.8189 19.8162 14.0194 19.9518 13.9597 20.3399C13.8999 20.7284 13.6525 20.8073 13.5359 20.7979H12.2625C12.1626 20.7979 11.9881 20.5632 11.9881 20.3116C11.9881 20.14 12.0531 19.797 12.6121 19.797H13.7107ZM3.42556 20.5118H4.34938V20.3116H3.42556V20.5118ZM17.2547 17.8526C16.2082 17.6702 16.0035 19.1488 16.032 19.9112C16.1402 19.3966 16.5361 18.3677 17.2547 18.3673C17.9735 18.3673 18.4696 19.7969 18.6277 20.5118C18.6063 19.7017 18.3016 18.0356 17.2547 17.8526ZM12.7117 20.1114C12.6035 20.0924 12.3875 20.0949 12.3875 20.255C12.3876 20.4146 12.4869 20.4551 12.5369 20.4552C12.5951 20.4456 12.7117 20.4085 12.7117 20.3399C12.7866 20.3399 13.2613 20.3113 13.5359 20.3399V20.1114H12.7117ZM16.8552 20.169C16.971 19.8282 17.3203 19.3802 17.7947 20.2931C17.5517 19.8365 17.0687 20.0186 16.8552 20.169ZM14.7341 20.1114C14.7591 20.1591 14.8291 20.255 14.909 20.255C14.9886 20.2547 15.0247 20.159 15.033 20.1114H14.7341ZM18.8777 8.16024C18.1994 8.11454 18.0294 8.21729 18.0291 8.2745C17.9875 9.37038 17.7594 11.5675 17.1804 11.5909C16.6013 11.6138 12.3794 11.7537 10.3406 11.8204C8.46834 11.8817 5.43013 11.9006 5.32302 13.2501L4.9236 18.2813C4.90696 18.5672 5.02301 19.1222 5.62185 19.0538C6.22096 18.9852 9.11701 18.8729 10.49 18.8253C10.748 18.7586 11.259 18.4875 11.239 17.9386C11.2191 17.3893 11.3141 14.2788 11.364 12.7921C11.364 12.6872 11.3236 12.4722 11.1638 12.4493L17.3552 12.0772C17.5633 12.0771 17.9891 11.9056 18.0291 11.2198C18.069 10.5336 18.3452 9.10371 18.4783 8.47469H19.3523C19.477 8.38885 19.5563 8.20596 18.8777 8.16024ZM4.39919 18.7393C4.15968 18.625 3.76695 18.7866 3.60036 18.8819C3.96643 18.8819 4.63815 18.8536 4.39919 18.7393ZM4.4988 17.6241C4.09938 17.6241 3.29069 17.6815 3.25075 17.9102C3.21083 18.139 3.20095 18.4248 3.20095 18.5391H3.25075L4.44899 18.4815L4.4988 17.6241ZM10.3406 12.9063C10.4988 12.8493 10.8142 12.8726 10.8142 13.421C10.8142 13.9699 10.7147 16.5279 10.6648 17.7384C10.6648 17.948 10.5445 18.3673 10.0652 18.3673C9.58473 18.3673 7.01947 18.482 5.79665 18.5391C5.65864 18.539 5.39121 18.413 5.42263 17.9102C5.42263 17.773 5.62258 15.0124 5.72243 13.6495C5.72267 13.4588 5.89254 13.0782 6.57106 13.0782C7.25037 13.0782 9.36716 12.9635 10.3406 12.9063ZM21.7732 18.0528C21.5489 18.0245 21.524 18.2811 21.7732 18.2813C21.9699 18.2813 23.3794 18.4915 24.0701 18.5391L21.7732 18.0528ZM20.2761 17.4239C20.2761 17.9723 20.01 18.0716 19.8767 18.0528V18.3673C20.4755 18.3898 20.5755 17.7479 20.5506 17.4239H20.2761ZM12.3123 16.9376C12.1625 16.9757 11.8631 17.2468 11.8631 18.0245H14.2341C14.4006 17.9864 14.7341 17.7153 14.7341 16.9376H12.3123ZM10.3406 17.4239C9.88127 17.1723 7.06978 17.2524 5.79665 17.6241L10.3406 17.5099V17.4239ZM4.6238 16.4806C4.22438 16.5663 3.59519 17.0526 3.47536 17.2813C3.77492 17.2242 4.39894 17.1213 4.4988 17.1671L4.6238 16.4806ZM20.8494 8.0743C20.2007 8.0744 19.9011 8.27478 19.9011 8.56063V11.2198H20.5252V8.36044C21.044 8.24616 21.2909 8.48379 21.3494 8.61727V16.7667H20.6004V11.6768H20.0008V17.1954C20.1755 17.0525 20.6998 17.024 21.199 17.1954C21.5982 17.3326 21.6818 16.9669 21.6736 16.7667C21.6237 14.2316 21.5242 9.05187 21.5242 8.61727C21.5239 8.18308 21.074 8.0743 20.8494 8.0743ZM21.948 7.87411C21.9422 7.87087 21.8472 7.82092 21.823 7.93173C21.7988 8.04326 21.8939 8.07299 21.8982 8.0743L24.1199 9.13192L24.5945 17.1378L24.4441 8.98934L21.948 7.87411ZM10.3406 16.3087C10.4852 16.1091 5.9713 16.3091 5.79665 16.4806C7.26117 16.4901 10.2208 16.4688 10.3406 16.3087ZM10.49 15.1085C9.9508 14.9255 7.25291 15.1845 5.97145 15.337C7.41861 15.3275 10.3475 15.2684 10.49 15.1085ZM17.9793 12.5919C17.8545 13.1064 17.8045 14.1926 17.8045 14.5645C17.8045 14.879 18.0789 14.7647 18.0789 14.5645L17.9793 12.5919ZM10.49 13.964C10.4807 13.8219 6.14601 14.0221 5.97145 14.1934C7.47758 14.1649 10.49 14.0783 10.49 13.964ZM23.1463 9.70419C23.1461 9.44691 22.2739 8.71906 22.2732 9.13192C22.2732 9.41784 22.9416 9.30434 22.9216 9.7618C22.8968 10.3347 23.0464 13.8203 23.1463 14.0216V9.70419ZM17.1804 12.9063C17.1002 12.5634 15.4832 12.5538 14.6843 12.5919C12.0083 12.7062 11.5718 13.0785 11.6883 13.2501C13.236 13.0214 16.5014 12.6319 17.1804 12.9063ZM19.4773 11.4766C19.3359 11.5529 18.8828 11.7061 18.2039 11.7061V11.963C18.6449 11.982 19.5173 11.9112 19.4773 11.4766ZM8.96755 9.24716L9.09255 11.3341H9.44118C9.64072 10.6865 10.06 9.39746 10.1404 9.41805V9.13192L8.96755 9.24716ZM10.8142 11.2765H10.989L11.364 9.24716H11.1638L10.8142 11.2765ZM17.1804 8.96102C16.2069 9.07539 14.2344 9.47567 13.7351 9.47567L15.4578 9.61825C15.0084 10.1138 14.0347 11.1283 13.7351 11.2198C13.815 11.2198 15.7328 11.1437 16.6814 11.1056L17.1804 8.96102ZM18.8777 6.90243C16.3439 7.00726 11.9635 7.33155 10.74 7.70321C9.90144 7.95802 9.86608 8.41729 9.81618 8.81747C11.5304 8.46483 15.5476 7.81183 17.9041 8.01766C18.0205 7.73182 18.3633 7.17694 18.8025 7.2452C19.2419 7.31382 19.6186 7.42606 19.7517 7.47372L18.8777 6.90243ZM21.449 1.29794C20.8998 1.29794 20.1756 1.94437 20.1756 2.92782V7.78817H20.5506L20.6004 2.87118C20.6004 2.55673 20.8748 1.98498 21.324 1.84188C21.7136 1.71793 21.6237 1.29796 21.449 1.29794ZM14.2595 4.95809C13.7853 5.19633 12.792 5.78133 12.6121 6.21591C12.9866 5.95855 13.9256 5.46077 14.6843 5.52938C13.9937 5.72952 12.5672 6.30761 12.3875 7.01669C14.0684 6.74982 17.5498 6.26787 18.0291 6.47372C18.4867 5.89239 19.5017 4.7233 19.9011 4.70028V4.27157L14.2595 4.95809Z" fill="white"/>
</svg>
